<?xml version="1.0" encoding="utf-8"?>
<!-- Generator: Adobe Illustrator 16.0.0, SVG Export Plug-In . SVG Version: 6.00 Build 0)  -->
<!DOCTYPE svg PUBLIC "-//W3C//DTD SVG 1.1//EN" "http://www.w3.org/Graphics/SVG/1.1/DTD/svg11.dtd">
<svg version="1.1" id="Layer_1" xmlns="http://www.w3.org/2000/svg" xmlns:xlink="http://www.w3.org/1999/xlink" x="0px" y="0px"
	 width="32px" height="32px" viewBox="0 0 32 32" enable-background="new 0 0 32 32" xml:space="preserve">
<path id="diamond" fill="#333333" d="M31.414,9.677l-5.08-5.081C25.959,4.221,25.449,4.01,24.92,4.01H7.081
	c-0.53,0-1.039,0.211-1.414,0.586l-5.08,5.081C0.194,10.069-0.002,10.586,0,11.104c0.003,0.47,0.171,0.939,0.506,1.316
	l13.999,14.908C14.885,27.756,15.429,28,16,28c0.571,0,1.115-0.244,1.494-0.672l14-14.908c0.342-0.385,0.51-0.867,0.506-1.348
	C31.996,10.566,31.799,10.062,31.414,9.677z M18.219,11.01H13.78L16,9.161L18.219,11.01z M16.782,8.51l2.732-2.278l2.018,2.018
	L19,10.359L16.782,8.51z M13,10.359L10.468,8.25l2.018-2.018l2.733,2.278L13,10.359z M18.49,12.01L16,24.463L13.51,12.01H18.49z
	 M19.51,12.01h4.906l-7.359,12.269L19.51,12.01z M19.779,11.01l2.463-2.051l2.051,2.051H19.779z M20.707,6.01h3.512l-1.916,1.597
	L20.707,6.01z M16,7.86l-2.22-1.85h4.438L16,7.86z M9.696,7.607L7.78,6.01h3.513L9.696,7.607z M9.758,8.959l2.462,2.051H7.707
	L9.758,8.959z M12.49,12.01l2.453,12.269L7.583,12.01H12.49z M12.704,22.488L2.864,12.01h3.554L12.704,22.488z M25.582,12.01h3.555
	l-9.842,10.48L25.582,12.01z M25.707,11.01l-2.693-2.693l2.297-1.915l4.607,4.608H25.707z M6.686,6.4l2.301,1.917L6.293,11.01H2.006
	L6.686,6.4z"/>
</svg>
