<?xml version="1.0" encoding="utf-8"?>
<!-- Generator: Adobe Illustrator 16.0.0, SVG Export Plug-In . SVG Version: 6.00 Build 0)  -->
<!DOCTYPE svg PUBLIC "-//W3C//DTD SVG 1.1//EN" "http://www.w3.org/Graphics/SVG/1.1/DTD/svg11.dtd">
<svg version="1.1" xmlns="http://www.w3.org/2000/svg" xmlns:xlink="http://www.w3.org/1999/xlink" x="0px" y="0px" width="32px"
	 height="32px" viewBox="0 0 32 32" enable-background="new 0 0 32 32" xml:space="preserve">
<g id="Layer_1">
	<path id="t-shirt_1_" fill-rule="evenodd" clip-rule="evenodd" fill="#333333" d="M31.25,6.438l-5-4C25.895,2.154,25.453,2,25,2H7
		C6.546,2,6.105,2.154,5.75,2.438l-5,4C0.096,6.962-0.162,7.838,0.103,8.633l2,6c0.197,0.591,0.659,1.057,1.249,1.259
		C3.562,15.964,3.782,16,4,16c0.348,0,0.693-0.091,1-0.268V28c0,1.104,0.896,2,2,2h18c1.104,0,2-0.896,2-2V15.732
		C27.307,15.909,27.652,16,28,16c0.219,0,0.438-0.036,0.648-0.108c0.59-0.202,1.051-0.668,1.248-1.259l2-6
		C32.162,7.838,31.904,6.962,31.25,6.438z M19.754,4C19.201,5.161,17.736,6,16,6c-1.736,0-3.202-0.839-3.754-2H19.754z M28,14l-3-2
		v16H7V12l-3,2L2,8l5-4h4.177C11.734,5.722,13.673,7,16,7c2.326,0,4.266-1.278,4.822-3H25l5,4L28,14z"/>
</g>
<g id="Layer_2">
</g>
</svg>
