<?xml version="1.0" encoding="utf-8"?>
<!-- Generator: Adobe Illustrator 18.0.0, SVG Export Plug-In . SVG Version: 6.00 Build 0)  -->
<!DOCTYPE svg PUBLIC "-//W3C//DTD SVG 1.1//EN" "http://www.w3.org/Graphics/SVG/1.1/DTD/svg11.dtd">
<svg version="1.1" id="Ebene_1" xmlns="http://www.w3.org/2000/svg" xmlns:xlink="http://www.w3.org/1999/xlink" x="0px" y="0px"
	 viewBox="0 0 400.9 119.6" enable-background="new 0 0 400.9 119.6" xml:space="preserve">
<g id="Layer_1" display="none">
	<g id="Subline_white_1_" display="inline">
		<path fill="#21409A" d="M13.9,99.4c-0.9,0-1.5,0.7-1.5,1.5v6H4.8v-6c0-0.9-0.7-1.5-1.5-1.5s-1.5,0.7-1.5,1.5v15.2
			c0,0.8,0.7,1.5,1.5,1.5s1.5-0.7,1.5-1.5v-6.4h7.6v6.4c0,0.8,0.7,1.5,1.5,1.5c0.9,0,1.5-0.7,1.5-1.5v-15.2
			C15.5,100.1,14.8,99.4,13.9,99.4z"/>
		<path fill="#21409A" d="M26.4,99.2c-5.4,0-8.4,3-8.4,9.3c0,6.2,3.1,9.3,8.4,9.3s8.4-3.1,8.4-9.3C34.8,102.2,31.8,99.2,26.4,99.2z
			 M26.4,115.1c-3.5,0-5.2-2.2-5.2-6.5c0-4.4,1.7-6.6,5.2-6.6s5.2,2.2,5.2,6.6C31.6,112.9,29.9,115.1,26.4,115.1z"/>
		<path fill="#21409A" d="M45.1,99.2c-5.4,0-8.4,3-8.4,9.3c0,6.2,3.1,9.3,8.4,9.3s8.4-3.1,8.4-9.3C53.5,102.2,50.4,99.2,45.1,99.2z
			 M45.1,115.1c-3.5,0-5.2-2.2-5.2-6.5c0-4.4,1.7-6.6,5.2-6.6s5.2,2.2,5.2,6.6C50.3,112.9,48.6,115.1,45.1,115.1z"/>
		<path fill="#21409A" d="M61.1,99.6h-3.6c-0.8,0-1.5,0.7-1.5,1.5v14.8c0,0.8,0.7,1.5,1.5,1.5h3.6c5.3,0,8.6-2.4,8.6-8.9
			C69.7,102,66.4,99.6,61.1,99.6z M61.1,114.7h-2v-12.4h2c3.4,0,5.4,1.6,5.4,6.2C66.6,113.2,64.5,114.7,61.1,114.7z"/>
		<path fill="#21409A" d="M72.2,114.2c-1.1,0-1.8,0.6-1.8,1.8c0,1.2,0.6,1.7,1.8,1.7s1.7-0.6,1.7-1.7
			C74,114.8,73.4,114.2,72.2,114.2z"/>
		<path fill="#21409A" d="M77.1,99.4c-0.9,0-1.5,0.7-1.5,1.5v15.2c0,0.8,0.7,1.5,1.5,1.5c0.8,0,1.5-0.7,1.5-1.5v-15.2
			C78.6,100.1,77.9,99.4,77.1,99.4z"/>
		<path fill="#21409A" d="M92.2,114.7h-7v-4.9h5c0.7,0,1.4-0.6,1.4-1.4c0-0.7-0.6-1.4-1.4-1.4h-5v-4.8h6.7c0.8,0,1.4-0.6,1.4-1.4
			c0-0.8-0.6-1.4-1.4-1.4h-8.3c-0.9,0-1.5,0.7-1.5,1.5v14.8c0,0.8,0.7,1.5,1.5,1.5h8.6c0.8,0,1.4-0.6,1.4-1.4
			C93.6,115.3,93,114.7,92.2,114.7z"/>
	</g>
	<path display="inline" fill="#21409A" d="M89.4,77.5c1.3,1.2,2.6,2.2,4,3.2V12.8c-1.4,1-2.7,2.1-4,3.2V77.5z"/>
	<path display="inline" fill="#21409A" d="M12.6,5h17.5c3.7,0,6.8,3,6.8,6.8c0,5.9,4.8,10.8,10.8,10.8s10.8-4.8,10.8-10.8
		c0-3.7,3-6.8,6.8-6.8h17.5c3.4,0,6.2,2.6,6.7,5.9c1.1-0.9,2.3-1.7,3.5-2.5C91.4,4.1,87.4,1,82.6,1H65.1c-5.9,0-10.8,4.8-10.8,10.8
		c0,3.7-3,6.8-6.8,6.8s-6.8-3-6.8-6.8C40.9,5.8,36,1,30.1,1H12.6C6.7,1,1.8,5.8,1.8,11.8v70c0,5.9,4.8,10.8,10.8,10.8h17.5
		c5.9,0,10.8-4.8,10.8-10.8c0-3.7,3-6.8,6.8-6.8s6.8,3,6.8,6.8c0,5.9,4.8,10.8,10.8,10.8h17.5c4.7,0,8.8-3.1,10.2-7.3
		c-1.2-0.8-2.4-1.6-3.5-2.5c-0.4,3.3-3.3,5.9-6.7,5.9H65.1c-3.7,0-6.8-3-6.8-6.8c0-5.9-4.8-10.8-10.8-10.8s-10.8,4.8-10.8,10.8
		c0,3.7-3,6.8-6.8,6.8H12.6c-3.7,0-6.8-3-6.8-6.8v-70C5.8,8,8.9,5,12.6,5z"/>
	<path display="inline" fill="#009444" d="M89.4,16c1.3-1.2,2.6-2.2,4-3.2c6.8-4.9,15.2-7.8,24.3-7.8c13.1,0,24.9,6.1,32.5,15.6
		c0.8-1.1,1.6-2.2,2.5-3.3c-8.4-10-21-16.3-35-16.3c-9.1,0-17.7,2.7-24.8,7.3c-1.2,0.8-2.4,1.6-3.5,2.5
		c-10.6,8.4-17.4,21.4-17.4,35.9s6.8,27.5,17.4,35.9c1.1,0.9,2.3,1.7,3.5,2.5c7.2,4.6,15.7,7.3,24.8,7.3c14,0,26.6-6.4,35-16.3
		c-0.9-1-1.7-2.1-2.5-3.3c-7.7,9.5-19.4,15.6-32.5,15.6c-9,0-17.4-2.9-24.3-7.8c-1.4-1-2.7-2.1-4-3.2c-8.3-7.6-13.5-18.6-13.5-30.7
		S81.1,23.7,89.4,16z"/>
	<path display="inline" fill="#009444" d="M152.6,24c4.3,6.5,6.8,14.4,6.8,22.7s-2.5,16.2-6.8,22.7c0.8,1.2,1.6,2.3,2.5,3.4
		c5.2-7.4,8.3-16.4,8.3-26.2s-3.1-18.7-8.3-26.2C154.2,21.7,153.4,22.8,152.6,24z"/>
	<path display="inline" fill="#FBB040" d="M155.1,20.6C162.8,11.1,174.5,5,187.7,5c9,0,17.4,2.9,24.3,7.8v-1c0-1.2,0.3-2.3,0.7-3.3
		c-7.2-4.7-15.8-7.4-25-7.4c-14,0-26.6,6.4-35,16.3c-0.9,1-1.7,2.1-2.5,3.3c-5.2,7.4-8.3,16.4-8.3,26.2s3.1,18.7,8.3,26.2
		c0.8,1.1,1.6,2.2,2.5,3.3c8.4,10,21,16.3,35,16.3c9.2,0,17.8-2.7,25-7.4c-0.5-1-0.7-2.2-0.7-3.3v-1c-6.8,4.9-15.2,7.8-24.3,7.8
		c-13.1,0-24.9-6.1-32.5-15.6c-0.9-1.1-1.7-2.3-2.5-3.4c-4.3-6.5-6.8-14.3-6.8-22.7s2.5-16.2,6.8-22.7
		C153.4,22.8,154.2,21.7,155.1,20.6z"/>
	<path display="inline" fill="#FBB040" d="M216,10.9c-0.1,0.3-0.1,0.6-0.1,0.9V16c8.3,7.6,13.5,18.6,13.5,30.7s-5.2,23.1-13.5,30.7
		v4.3c0,0.3,0,0.6,0.1,0.9c10.6-8.4,17.4-21.3,17.4-35.9C233.4,32.2,226.6,19.3,216,10.9z"/>
	<path display="inline" fill="#F15A29" d="M215.9,16v-4.3c0-0.3,0-0.6,0.1-0.9c0.7-3.3,5.5-5.9,11-5.9h30.6c9,0,17.4,2.9,24.3,7.8
		v-1c0-1.2,0.2-2.3,0.7-3.4C275.4,3.7,266.9,1,257.7,1H227c-6.9,0-12.5,3.1-14.4,7.4c-0.5,1-0.7,2.2-0.7,3.3v1v67.9v1
		c0,1.2,0.3,2.3,0.7,3.3c1.9,4.4,7.6,7.4,14.4,7.4h30.6c9.2,0,17.7-2.7,24.9-7.4c-0.4-1.1-0.7-2.2-0.7-3.3v-1
		c-6.8,4.9-15.2,7.8-24.3,7.8H227c-5.6,0-10.3-2.6-11-5.9c-0.1-0.3-0.1-0.6-0.1-0.9v-4.3V16z"/>
	<path display="inline" fill="#F15A29" d="M286,10.9c0,0.3-0.1,0.6-0.1,0.9V16c8.3,7.6,13.5,18.6,13.5,30.7s-5.2,23.1-13.5,30.7v4.3
		c0,0.3,0,0.6,0.1,0.9c10.6-8.4,17.4-21.4,17.4-35.9C303.4,32.2,296.6,19.3,286,10.9z"/>
	<path display="inline" fill="#603913" d="M325.7,77.5c1.3,1.2,2.6,2.2,4,3.2V12.8c-1.4,1-2.7,2.1-4,3.2V77.5z"/>
	<path display="inline" fill="#392315" d="M285.9,16v-4.3c0-0.3,0-0.6,0.1-0.9c0.6-3.3,4.3-5.9,8.9-5.9h21.9c4.5,0,8.3,2.6,8.9,5.9
		c1.1-0.9,2.2-1.7,3.4-2.5c-1.7-4.3-6.6-7.4-12.3-7.4h-21.9c-5.7,0-10.6,3.1-12.3,7.4c-0.4,1.1-0.7,2.2-0.7,3.4v1v67.9v1
		c0,1.2,0.2,2.3,0.7,3.3c1.7,4.3,6.6,7.4,12.3,7.4h21.9c5.7,0,10.6-3.1,12.3-7.4c-1.2-0.8-2.3-1.6-3.4-2.5c-0.6,3.3-4.3,5.9-8.9,5.9
		h-21.9c-4.5,0-8.3-2.6-8.9-5.9c0-0.3-0.1-0.6-0.1-0.9v-4.3L285.9,16L285.9,16z"/>
	<path display="inline" fill="#BE1E2D" d="M389,1h-35c-9.2,0-17.7,2.7-24.9,7.4c-1.2,0.8-2.3,1.6-3.4,2.5
		c-10.6,8.4-17.4,21.4-17.4,35.9c0,14.5,6.8,27.5,17.4,35.9c1.1,0.9,2.2,1.7,3.4,2.5c7.2,4.7,15.7,7.4,24.9,7.4h35
		c5.9,0,10.8-4.8,10.8-10.8V68.6c0-3.6-1.8-6.8-4.5-8.7c2.7-1.9,4.5-5.1,4.5-8.8v-8.8c0-3.8-1.9-6.8-4.6-8.7
		c2.8-1.9,4.6-5.2,4.6-8.8V11.8C399.7,5.8,394.9,1,389,1z M395.7,24.9c0,3.7-3,6.8-6.8,6.8v4c3.2,0,6.8,2.8,6.8,6.8v8.8
		c0,3.8-3,6.8-6.8,6.8v4c3.7,0,6.8,3,6.8,6.8v13.1c0,3.7-3,6.8-6.8,6.8h-35c-9,0-17.4-2.9-24.3-7.8c-1.4-1-2.7-2.1-4-3.2
		c-8.3-7.6-13.5-18.6-13.5-30.7s5.2-23.1,13.5-30.7c1.3-1.2,2.6-2.2,4-3.2C336.5,7.9,344.9,5,354,5h35c3.7,0,6.8,3,6.8,6.8V24.9z"/>
</g>
<path fill="#FFFFFF" d="M89.4,16v61.4c1.3,1.2,2.6,2.2,4,3.2V12.8C92,13.8,90.6,14.9,89.4,16z"/>
<path fill="#FFFFFF" d="M82.6,88.5H65.1c-3.7,0-6.8-3-6.8-6.8c0-5.9-4.8-10.8-10.8-10.8s-10.8,4.8-10.8,10.8c0,3.7-3,6.8-6.8,6.8
	H12.6c-3.7,0-6.8-3-6.8-6.8v-70C5.8,8,8.9,5,12.6,5h17.5c3.7,0,6.8,3,6.8,6.8c0,5.9,4.8,10.8,10.8,10.8s10.8-4.8,10.8-10.8
	c0-3.7,3-6.8,6.8-6.8h17.5c3.4,0,6.2,2.6,6.7,5.9c1.1-0.9,2.3-1.7,3.5-2.5C91.4,4.1,87.4,1,82.6,1H65.1c-5.9,0-10.8,4.8-10.8,10.8
	c0,3.7-3,6.8-6.8,6.8s-6.8-3-6.8-6.8C40.9,5.8,36,1,30.1,1H12.6C6.7,1,1.8,5.8,1.8,11.8v70c0,5.9,4.8,10.8,10.8,10.8h17.5
	c5.9,0,10.8-4.8,10.8-10.8c0-3.7,3-6.8,6.8-6.8s6.8,3,6.8,6.8c0,5.9,4.8,10.8,10.8,10.8h17.5c4.7,0,8.8-3.1,10.2-7.3
	c-1.2-0.8-2.4-1.6-3.5-2.5C88.9,86,86,88.5,82.6,88.5z"/>
<path fill="#FFFFFF" d="M117.6,88.5c-9,0-17.4-2.9-24.3-7.8c-1.4-1-2.7-2.1-4-3.2c-8.3-7.6-13.5-18.6-13.5-30.7S81.1,23.7,89.4,16
	c1.3-1.2,2.6-2.2,4-3.2c6.8-4.9,15.2-7.8,24.3-7.8c13.1,0,24.9,6.1,32.5,15.6c0.8-1.1,1.6-2.2,2.5-3.3c-8.4-10-21-16.3-35-16.3
	c-9.1,0-17.7,2.7-24.8,7.3c-1.2,0.8-2.4,1.6-3.5,2.5c-10.6,8.4-17.4,21.4-17.4,35.9s6.8,27.5,17.4,35.9c1.1,0.9,2.3,1.7,3.5,2.5
	c7.2,4.6,15.7,7.3,24.8,7.3c14,0,26.6-6.4,35-16.3c-0.9-1-1.7-2.1-2.5-3.3C142.5,82.4,130.8,88.5,117.6,88.5z"/>
<path fill="#FFFFFF" d="M155.1,20.6c-0.9,1.1-1.7,2.3-2.5,3.4c4.3,6.5,6.8,14.4,6.8,22.7s-2.5,16.2-6.8,22.7
	c0.8,1.2,1.6,2.3,2.5,3.4c5.2-7.4,8.3-16.4,8.3-26.2S160.3,28,155.1,20.6z"/>
<path fill="#FFFFFF" d="M211.9,80.7c-6.8,4.9-15.2,7.8-24.3,7.8c-13.1,0-24.9-6.1-32.5-15.6c-0.9-1.1-1.7-2.3-2.5-3.4
	c-4.3-6.5-6.8-14.3-6.8-22.7s2.5-16.2,6.8-22.7c0.8-1.2,1.6-2.3,2.5-3.4C162.8,11.1,174.5,5,187.7,5c9,0,17.4,2.9,24.3,7.8v-1
	c0-1.2,0.3-2.3,0.7-3.3c-7.2-4.7-15.8-7.4-25-7.4c-14,0-26.6,6.4-35,16.3c-0.9,1-1.7,2.1-2.5,3.3c-5.2,7.4-8.3,16.4-8.3,26.2
	s3.1,18.7,8.3,26.2c0.8,1.1,1.6,2.2,2.5,3.3c8.4,10,21,16.3,35,16.3c9.2,0,17.8-2.7,25-7.4c-0.5-1-0.7-2.2-0.7-3.3L211.9,80.7
	L211.9,80.7z"/>
<path fill="#FFFFFF" d="M233.4,46.8c0-14.5-6.8-27.5-17.4-35.9c-0.1,0.3-0.1,0.6-0.1,0.9V16c8.3,7.6,13.5,18.6,13.5,30.7
	s-5.2,23.1-13.5,30.7v4.3c0,0.3,0,0.6,0.1,0.9C226.6,74.2,233.4,61.3,233.4,46.8z"/>
<path fill="#FFFFFF" d="M227,5c-5.6,0-10.3,2.6-11,5.9c-0.1,0.3-0.1,0.6-0.1,0.9V16v61.4v4.3c0,0.3,0,0.6,0.1,0.9
	c0.7,3.3,5.5,5.9,11,5.9h30.6c9,0,17.4-2.9,24.3-7.8v1c0,1.2,0.2,2.3,0.7,3.3c-7.2,4.7-15.7,7.4-24.9,7.4H227
	c-6.9,0-12.5-3.1-14.4-7.4c-0.5-1-0.7-2.2-0.7-3.3v-1V12.8v-1c0-1.2,0.3-2.3,0.7-3.3C214.5,4.1,220.2,1,227,1h30.6
	c9.2,0,17.7,2.7,24.9,7.4c-0.4,1.1-0.7,2.2-0.7,3.4v1C275.1,7.9,266.7,5,257.7,5H227z"/>
<path fill="#FFFFFF" d="M303.4,46.8c0-14.5-6.8-27.5-17.4-35.9c0,0.3-0.1,0.6-0.1,0.9V16c8.3,7.6,13.5,18.6,13.5,30.7
	s-5.2,23.1-13.5,30.7v4.3c0,0.3,0,0.6,0.1,0.9C296.6,74.3,303.4,61.3,303.4,46.8z"/>
<path fill="#FFFFFF" d="M325.7,16v61.4c1.3,1.2,2.6,2.2,4,3.2V12.8C328.3,13.8,327,14.9,325.7,16z"/>
<path fill="#FFFFFF" d="M316.8,88.5h-21.9c-4.5,0-8.3-2.6-8.9-5.9c0-0.3-0.1-0.6-0.1-0.9v-4.3V16v-4.3c0-0.3,0-0.6,0.1-0.9
	c0.6-3.3,4.3-5.9,8.9-5.9h21.9c4.5,0,8.3,2.6,8.9,5.9c1.1-0.9,2.2-1.7,3.4-2.5c-1.7-4.3-6.6-7.4-12.3-7.4h-21.9
	c-5.7,0-10.6,3.1-12.3,7.4c-0.4,1.1-0.7,2.2-0.7,3.4v1v67.9v1c0,1.2,0.2,2.3,0.7,3.3c1.7,4.3,6.6,7.4,12.3,7.4h21.9
	c5.7,0,10.6-3.1,12.3-7.4c-1.2-0.8-2.3-1.6-3.4-2.5C325,86,321.3,88.5,316.8,88.5z"/>
<path fill="#FFFFFF" d="M399.7,24.9V11.8C399.7,5.8,394.9,1,389,1h-35c-9.2,0-17.7,2.7-24.9,7.4c-1.2,0.8-2.3,1.6-3.4,2.5
	c-10.6,8.4-17.4,21.4-17.4,35.9c0,14.5,6.8,27.5,17.4,35.9c1.1,0.9,2.2,1.7,3.4,2.5c7.2,4.7,15.7,7.4,24.9,7.4h35
	c5.9,0,10.8-4.8,10.8-10.8V68.6c0-3.6-1.8-6.8-4.5-8.7c2.7-1.9,4.5-5.1,4.5-8.8v-8.8c0-3.8-1.9-6.8-4.6-8.7
	C397.9,31.7,399.7,28.5,399.7,24.9z M395.7,24.9c0,3.7-3,6.8-6.8,6.8v4c3.2,0,6.8,2.8,6.8,6.8v8.8c0,3.8-3,6.8-6.8,6.8v4
	c3.7,0,6.8,3,6.8,6.8v13.1c0,3.7-3,6.8-6.8,6.8h-35c-9,0-17.4-2.9-24.3-7.8c-1.4-1-2.7-2.1-4-3.2c-8.3-7.6-13.5-18.6-13.5-30.7
	s5.2-23.1,13.5-30.7c1.3-1.2,2.6-2.2,4-3.2C336.5,7.9,344.9,5,354,5h35c3.7,0,6.8,3,6.8,6.8V24.9z"/>
</svg>
