<svg xmlns="http://www.w3.org/2000/svg" xmlns:xlink="http://www.w3.org/1999/xlink" version="1.1" x="0" y="0" width="32" height="32" viewBox="0 0 32 32" enable-background="new 0 0 32 32" xml:space="preserve">
  <path fill="#333332" d="M29.33 3H25V1c0-0.55-0.45-1-1-1s-1 0.45-1 1v2h-6V1c0-0.55-0.45-1-1-1s-1 0.45-1 1v2H9V1c0-0.55-0.45-1-1-1S7 0.45 7 1v2H2.67C1.19 3 0 4.19 0 5.67v23.67C0 30.81 1.19 32 2.67 32h26.67C30.81 32 32 30.81 32 29.33V5.67C32 4.19 30.81 3 29.33 3zM30 29.33C30 29.7 29.7 30 29.33 30H2.67C2.3 30 2 29.7 2 29.33V5.67C2 5.3 2.3 5 2.67 5H7v2c0 0.55 0.45 1 1 1s1-0.45 1-1V5h6v2c0 0.55 0.45 1 1 1s1-0.45 1-1V5h6v2c0 0.55 0.45 1 1 1s1-0.45 1-1V5h4.33C29.7 5 30 5.3 30 5.67V29.33z"/>
  <rect x="7" y="12" fill="#333332" width="4" height="3"/>
  <rect x="7" y="17" fill="#333332" width="4" height="3"/>
  <rect x="7" y="22" fill="#333332" width="4" height="3"/>
  <rect x="14" y="22" fill="#333332" width="4" height="3"/>
  <rect x="14" y="17" fill="#333332" width="4" height="3"/>
  <rect x="14" y="12" fill="#333332" width="4" height="3"/>
  <rect x="21" y="22" fill="#333332" width="4" height="3"/>
  <rect x="21" y="17" fill="#333332" width="4" height="3"/>
  <rect x="21" y="12" fill="#333332" width="4" height="3"/>
</svg>
