<svg xmlns="http://www.w3.org/2000/svg" version="1.1" x="0" y="0" viewBox="-160 322 150 150" enable-background="new -160 322 150 150" xml:space="preserve"><polygon fill="#FF0000" points="-22.2 363.9 -22.2 337.7 -147.5 337.7 -147.5 363.9 -157.3 363.9 -157.3 417.5 -12.6 417.5 -12.6 363.9 "/><path fill="#EB1019" d="M-159.9 418.6v-57.3h9.8v-26.1h130.5v26.1h9.6v57.3H-159.9L-159.9 418.6zM-155.8 416.5l141.2 0.1 -0.6-50.2h-9.6v-26.1h-120.1v26.1h-9.8l-1 48.4L-155.8 416.5z"/><polygon fill="#FFFFFF" points="-141 334.9 -141 346.7 -136.5 352.7 -123.4 348.3 -123.4 330.5 "/><polygon fill="#BD101D" stroke="#BD101D" points="-138.3 395 -108.6 401.7 -31.6 394.5 -31.6 417.9 -138.3 417.9 "/><polygon fill="#BD101D" stroke="#BD101D" points="-50.1 378.4 -58.1 375.1 -74.9 363.6 -94.9 369.7 -138.3 366.4 -138.3 381.8 -110.8 389.7 -32.2 382.8 -32.2 366.7 "/><polygon fill="#FFFFFF" points="-150.1 356.2 -155.1 361.5 -155.1 375.5 -148.1 378.5 -148.1 370.4 -145.1 372.7 -145.1 367.2 -138.3 367.2 -125.6 386.2 -121 387.5 -114.6 413.7 -111.3 415.1 -109 424.7 -90.7 424.7 -99.5 388.3 -74.6 372.1 -61.1 383.6 -57.8 382.3 -56.5 385.7 -32.2 383.5 -34.3 378.1 -48 374.7 -72.8 354.5 -99.9 364.8 -108.2 353.8 -95.7 341.1 -83.7 341.1 -79 345.1 -79 341.1 -69.6 341.1 -71.9 335.8 -99.4 331.5 -124.7 347.7 "/><path d="M-138.2 448.9c-1.1 0.6-3.5 1.2-6.6 1.2 -8.2 0-13.1-5.2-13.1-13 0-8.5 5.9-13.6 13.7-13.6 3.1 0 5.3 0.6 6.3 1.1l-1 3.7c-1.2-0.5-2.9-1-5-1 -5.2 0-9 3.3-9 9.5 0 5.6 3.3 9.3 9 9.3 1.9 0 3.9-0.4 5.1-1L-138.2 448.9zM-117.9 440.2c0 6.8-4.8 9.9-9.5 9.9 -5.3 0-9.3-3.6-9.3-9.6 0-6.1 4-9.8 9.6-9.8C-121.6 430.7-117.9 434.6-117.9 440.2zM-131.9 440.4c0 3.6 1.8 6.3 4.6 6.3 2.7 0 4.5-2.6 4.5-6.4 0-2.9-1.3-6.2-4.5-6.2C-130.6 434.1-131.9 437.3-131.9 440.4zM-98.1 444.1c0 2.2 0.1 4 0.2 5.6h-4.1l-0.2-2.8h-0.1c-0.8 1.3-2.6 3.2-6 3.2 -3.4 0-6.5-2-6.5-8.1v-10.9h4.7v10.1c0 3.1 1 5.1 3.5 5.1 1.9 0 3.1-1.3 3.6-2.5 0.2-0.4 0.3-0.9 0.3-1.4v-11.2h4.7L-98.1 444.1 -98.1 444.1zM-80 449.1c-1 0.5-2.9 1-5.3 1 -5.8 0-9.6-3.7-9.6-9.5 0-5.6 3.8-9.9 10.3-9.9 1.7 0 3.5 0.4 4.5 0.9l-0.8 3.5c-0.8-0.3-1.9-0.7-3.5-0.7 -3.6 0-5.7 2.6-5.7 6 0 3.8 2.5 6 5.7 6 1.6 0 2.8-0.3 3.7-0.7L-80 449.1zM-77.3 422.6h4.7v11.1h0.1c0.6-0.9 1.4-1.6 2.3-2.1 0.9-0.5 2-0.8 3.2-0.8 3.2 0 6.5 2.1 6.5 8.1v11h-4.7v-10.4c0-2.7-1-4.7-3.6-4.7 -1.8 0-3.1 1.2-3.6 2.6 -0.2 0.4-0.2 0.9-0.2 1.4v11.1h-4.7L-77.3 422.6 -77.3 422.6zM-56 424.3c2.1-0.3 4.7-0.5 7.5-0.5 4.8 0 8.1 1 10.5 3 2.5 2 4 5.1 4 9.5 0 4.6-1.6 8-4 10.2 -2.6 2.3-6.6 3.5-11.6 3.5 -2.7 0-4.8-0.2-6.3-0.3V424.3zM-51.3 446.1c0.6 0.1 1.6 0.1 2.6 0.1 6.1 0 9.7-3.3 9.7-9.8 0-5.7-3.2-8.9-9.1-8.9 -1.5 0-2.6 0.1-3.2 0.3V446.1zM-30.5 424.3c1.5-0.3 4.2-0.5 6.8-0.5 3.5 0 5.6 0.4 7.4 1.6 1.6 1 2.7 2.6 2.7 4.8 0 2.4-1.5 4.5-4.3 5.6v0.1c2.7 0.7 5.2 2.8 5.2 6.4 0 2.3-1 4.1-2.5 5.3 -1.8 1.6-4.8 2.4-9.5 2.4 -2.6 0-4.6-0.2-5.8-0.3L-30.5 424.3 -30.5 424.3zM-25.8 434.4h2.4c3.2 0 5.1-1.5 5.1-3.7 0-2.4-1.8-3.5-4.8-3.5 -1.4 0-2.2 0.1-2.7 0.2L-25.8 434.4 -25.8 434.4zM-25.8 446.3c0.6 0.1 1.4 0.1 2.5 0.1 3 0 5.7-1.1 5.7-4.3 0-3-2.6-4.2-5.8-4.2h-2.3V446.3z"/><path fill="#FF0000" d="M-56.1 457c0-1.1 0-2-0.1-2.9h1.5l0.1 1.8h0.1c0.4-1.2 1.4-2 2.6-2 0.2 0 0.3 0 0.5 0.1v1.6c-0.2 0-0.3-0.1-0.6-0.1 -1.2 0-2 0.9-2.3 2.2 0 0.2-0.1 0.5-0.1 0.8v4.9h-1.7L-56.1 457 -56.1 457zM-47.3 459c0 2.3 1.5 3.2 3.2 3.2 1.2 0 1.9-0.2 2.6-0.5l0.3 1.2c-0.6 0.3-1.6 0.6-3.1 0.6 -2.8 0-4.5-1.9-4.5-4.7s1.6-5 4.3-5c3 0 3.8 2.7 3.8 4.4 0 0.3 0 0.6-0.1 0.8L-47.3 459 -47.3 459zM-42.4 457.8c0-1.1-0.4-2.7-2.3-2.7 -1.7 0-2.4 1.6-2.6 2.7H-42.4zM-36.9 449.8h1.7v13.5h-1.7V449.8zM-24.3 461.1c0 0.8 0 1.6 0.2 2.2h-1.5l-0.1-1.2h-0.1c-0.5 0.7-1.5 1.4-2.8 1.4 -1.9 0-2.8-1.3-2.8-2.7 0-2.2 2-3.5 5.6-3.4v-0.2c0-0.8-0.2-2.1-2.1-2.1 -0.9 0-1.8 0.3-2.4 0.7l-0.4-1.1c0.8-0.5 1.9-0.8 3-0.8 2.8 0 3.5 1.9 3.5 3.8L-24.3 461.1 -24.3 461.1zM-25.9 458.6c-1.8 0-3.9 0.3-3.9 2.1 0 1.1 0.7 1.6 1.6 1.6 1.2 0 2-0.8 2.2-1.5 0.1-0.2 0.1-0.4 0.1-0.5L-25.9 458.6 -25.9 458.6zM-18.9 454.1l1.3 2c0.3 0.5 0.6 1 0.9 1.5h0.1c0.3-0.6 0.6-1 0.9-1.5l1.3-2h1.8l-3.1 4.5 3.2 4.8h-1.9l-1.4-2.1c-0.4-0.5-0.7-1-1-1.6h0c-0.3 0.6-0.6 1-1 1.6l-1.3 2.1H-21l3.3-4.7 -3.1-4.5H-18.9L-18.9 454.1z"/></svg>