<svg xmlns="http://www.w3.org/2000/svg" version="1.1" x="0" y="0" width="32" height="32" viewBox="0 0 32 32" enable-background="new 0 0 32 32" xml:space="preserve"><path fill="#333333" d="M31.414 9.677l-5.08-5.081C25.959 4.221 25.449 4.01 24.92 4.01H7.081c-0.53 0-1.039 0.211-1.414 0.586l-5.08 5.081C0.194 10.069-0.002 10.586 0 11.104c0.003 0.47 0.171 0.939 0.506 1.316l13.999 14.908C14.885 27.756 15.429 28 16 28c0.571 0 1.115-0.244 1.494-0.672l14-14.908c0.342-0.385 0.51-0.867 0.506-1.348C31.996 10.566 31.799 10.062 31.414 9.677zM18.219 11.01H13.78L16 9.161 18.219 11.01zM16.782 8.51l2.732-2.278 2.018 2.018L19 10.359 16.782 8.51zM13 10.359L10.468 8.25l2.018-2.018 2.733 2.278L13 10.359zM18.49 12.01L16 24.463 13.51 12.01H18.49zM19.51 12.01h4.906l-7.359 12.269L19.51 12.01zM19.779 11.01l2.463-2.051 2.051 2.051H19.779zM20.707 6.01h3.512l-1.916 1.597L20.707 6.01zM16 7.86l-2.22-1.85h4.438L16 7.86zM9.696 7.607L7.78 6.01h3.513L9.696 7.607zM9.758 8.959l2.462 2.051H7.707L9.758 8.959zM12.49 12.01l2.453 12.269L7.583 12.01H12.49zM12.704 22.488L2.864 12.01h3.554L12.704 22.488zM25.582 12.01h3.555l-9.842 10.48L25.582 12.01zM25.707 11.01l-2.693-2.693 2.297-1.915 4.607 4.608H25.707zM6.686 6.4l2.301 1.917L6.293 11.01H2.006L6.686 6.4z"/></svg>