<svg xmlns="http://www.w3.org/2000/svg" version="1.1" x="0" y="0" width="32" height="32" viewBox="0 0 32 32" enable-background="new 0 0 32 32" xml:space="preserve"><path fill="#333333" d="M27 5L5 5C4.45 5 4 5.44 4 6v14c0 0.55 0.45 1 1 1h22c0.55 0 1-0.45 1-1v-14C28 5.44 27.55 5 27 5zM27 20H5V6h22V20zM29 1H3C1.34 1 0 2.34 0 4v20c0 1.65 1.34 2.99 2.99 3H13v1.22l-6.24 0.81C6.31 29.14 6 29.54 6 30c0 0.55 0.45 1 1 1h18c0.55 0 1-0.45 1-1 0-0.46-0.31-0.86-0.76-0.97L19 28.22v-1.22h10.01C30.66 26.99 32 25.65 32 24V4C32 2.34 30.66 1 29 1zM30 24c0 0.55-0.45 1-1 1h-9 -8H3c-0.55 0-1-0.45-1-1V4c0-0.55 0.45-1 1-1h26c0.55 0 1 0.45 1 1V24z"/></svg>