<svg xmlns="http://www.w3.org/2000/svg" version="1.1" x="0" y="0" width="32" height="32" viewBox="0 0 32 32" enable-background="new 0 0 32 32" xml:space="preserve"><path fill="#333333" d="M25 0c-2.053 0-3.666 1.41-4.824 3.586l-0.021-0.012C18.473 6.867 15.969 9 13.226 9h-0.663H8.156 4c-2.243 0-4 2.197-4 5 0 2.805 1.757 5 4 5 1.103 0.004 1.995 0.896 1.995 2v9c0 1.105 0.896 2 2 2h4c1.104 0 2-0.895 2-2v-1c0-1-1-1.447-1-2v-7c0-0.023 0.016-0.039 0.018-0.062 0.01-0.143 0.049-0.275 0.112-0.395 0.018-0.033 0.037-0.059 0.059-0.088 0.08-0.119 0.181-0.217 0.304-0.293 0.006-0.004 0.008-0.01 0.014-0.014 0.004 0 0.007-0.004 0.011-0.004 0.08-0.045 0.176-0.055 0.266-0.08 2.524 0.268 4.809 2.305 6.377 5.373l0.025-0.012C21.34 26.594 22.949 28 25 28c4.596 0 7-7.043 7-14S29.596 0 25 0zM20 14c0-1.037 0.061-2.039 0.164-3H23c1.104 0 2 1.344 2 3 0 1.658-0.896 3-2 3h-2.836C20.061 16.039 20 15.039 20 14zM2 14c0-1.656 0.896-3 2-3h4.156H9h2.014C10.394 11.729 10 12.787 10 14c0 1.215 0.394 2.273 1.014 3H9 4C2.896 17 2 15.658 2 14zM11.995 30h-4v-9c0-0.729-0.195-1.41-0.537-2h0.698v0.012h3.008c-0.107 0.311-0.169 0.641-0.169 0.988v7c0 0.963 0.538 1.604 0.859 1.986 0.044 0.053 0.096 0.107 0.141 0.166V30zM13.226 17.012H13V17c-1.104 0-2-1.342-2-3 0-1.656 0.896-3 2-3h0.226c1.886 0 3.652-0.742 5.206-2.018C18.146 10.592 18 12.297 18 14c0 1.709 0.146 3.42 0.434 5.031C16.879 17.754 15.112 17.012 13.226 17.012zM25 26c-2.018 0-3.75-2.871-4.541-7H23c2.242 0 4-2.195 4-5 0-2.803-1.758-5-4-5h-2.541C21.25 4.873 22.982 2 25 2c2.762 0 5 5.373 5 12S27.762 26 25 26z"/></svg>