<svg xmlns="http://www.w3.org/2000/svg" version="1.1" x="0" y="0" viewBox="68.5 322 150 150" enable-background="new 68.5 322 150 150" xml:space="preserve"><path fill="#98BF00" d="M217.6 393.6l0.8-4.6h-4.3l1.3-6.7 -5.2 2 -0.8 4.7h-3.1l-0.8 4.6h3.1l-1.1 5.8c0 0.3-0.1 0.8-0.2 1.4 -0.1 0.6-0.1 1.1-0.1 1.6 0 2.1 0.5 3.8 1.5 5.2 1 1.4 2.6 2.2 4.8 2.5l2.2-4.4c-1.2-0.1-2-0.6-2.6-1.4 -0.6-0.8-0.9-1.8-0.9-3 0-0.2 0-0.6 0.1-1 0-0.5 0.1-0.8 0.1-1.1l1-5.5H217.6L217.6 393.6z"/><path fill="#98BF00" d="M172.2 393.1c0.8-0.3 1.5-0.4 2.1-0.4 0.6 0 1.2 0.2 1.6 0.6 0.4 0.4 0.6 0.9 0.6 1.6 0 0.2 0 0.5-0.1 0.9 -0.1 0.4-0.1 0.7-0.2 1l-1.2 5.6c-0.1 0.4-0.2 0.9-0.3 1.4 -0.1 0.5-0.1 0.9-0.1 1.2 0 1.4 0.4 2.5 1.1 3.4 0.7 0.9 2 1.4 3.9 1.6l2.1-4.3c-0.7-0.1-1.2-0.4-1.6-0.8 -0.3-0.4-0.5-1-0.5-1.7 0-0.2 0-0.4 0-0.6 0-0.2 0.1-0.4 0.1-0.5l1.2-5.7c0.1-0.5 0.2-1 0.3-1.5 0.1-0.5 0.1-0.9 0.1-1.4 0-1.7-0.5-3-1.5-4 -1-1-2.4-1.5-4.1-1.5 -1 0-2 0.2-2.9 0.5 -0.9 0.3-2.1 0.8-3.4 1.6 0-0.3-0.2-0.7-0.3-1.1 -0.2-0.4-0.4-0.8-0.6-1.1l-4.5 1.9c0.4 0.6 0.7 1.2 0.9 1.8 0.2 0.6 0.3 1.2 0.3 1.8 0 0.3 0 0.6-0.1 1 0 0.4-0.1 0.7-0.1 0.9l-2.7 14.1h4.8l2.8-15.2C170.7 393.7 171.4 393.3 172.2 393.1L172.2 393.1z"/><path fill="#98BF00" d="M185.6 395.7c-0.5 1.5-0.8 3.2-0.8 4.9 0 1.5 0.2 2.8 0.6 4 0.4 1.2 0.9 2.2 1.6 2.9 0.7 0.8 1.5 1.4 2.5 1.8 1 0.4 2.1 0.6 3.3 0.6 1.5 0 2.9-0.3 4.3-0.8 1.5-0.5 2.7-1.4 3.8-2.5l-1.8-4.2c-0.8 0.9-1.8 1.6-2.8 2.1 -1 0.5-2 0.7-3 0.7 -1.2 0-2.1-0.4-2.8-1.1 -0.7-0.8-1-1.7-1-2.8v-0.3c0-0.1 0-0.3 0.1-0.4 0.9-0.1 1.9-0.3 3-0.5 1.1-0.2 2.3-0.4 3.4-0.7 1.2-0.3 2.3-0.6 3.4-0.9 1.1-0.3 2.1-0.7 2.9-1v-1.9c0-1.2-0.2-2.3-0.5-3.2 -0.4-0.9-0.9-1.7-1.5-2.4 -0.7-0.7-1.4-1.2-2.3-1.5 -0.9-0.3-1.8-0.5-2.8-0.5 -1.5 0-2.9 0.3-4.1 1 -1.3 0.7-2.4 1.6-3.2 2.7C186.8 392.8 186.1 394.2 185.6 395.7L185.6 395.7zM192.8 392.3c0.5-0.3 1.1-0.4 1.8-0.4 0.9 0 1.6 0.3 2.2 0.9 0.6 0.6 0.9 1.4 0.9 2.6 -0.5 0.1-1.1 0.3-1.7 0.5 -0.7 0.2-1.4 0.3-2.1 0.5 -0.7 0.1-1.4 0.3-2.1 0.4 -0.7 0.1-1.3 0.2-1.8 0.3 0.1-0.7 0.2-1.4 0.5-2 0.3-0.6 0.6-1.2 0.9-1.6C191.8 393 192.3 392.6 192.8 392.3L192.8 392.3z"/><path d="M203.4 415.8c0-0.4-0.1-0.8-0.2-1.1 -0.1-0.3-0.3-0.6-0.5-0.9 -0.2-0.2-0.5-0.4-0.8-0.5 -0.3-0.1-0.7-0.2-1-0.2 -0.5 0-0.9 0.1-1.4 0.3 -0.4 0.2-0.8 0.5-1.1 0.8 -0.3 0.3-0.6 0.7-0.8 1.2 -0.2 0.5-0.3 0.9-0.3 1.5 0 0.4 0.1 0.8 0.2 1.1 0.1 0.3 0.3 0.6 0.5 0.9 0.2 0.2 0.5 0.4 0.8 0.6 0.3 0.1 0.7 0.2 1.1 0.2 0.5 0 0.9-0.1 1.3-0.3s0.8-0.5 1.1-0.8c0.3-0.3 0.6-0.7 0.8-1.2C203.3 416.8 203.4 416.3 203.4 415.8L203.4 415.8zM198.8 415.8c0.1-0.3 0.2-0.6 0.4-0.8 0.2-0.2 0.4-0.4 0.7-0.6s0.5-0.2 0.8-0.2c0.5 0 0.8 0.2 1.1 0.4 0.3 0.3 0.4 0.7 0.4 1.2 0 0.3 0 0.6-0.1 1 -0.1 0.3-0.2 0.6-0.4 0.8 -0.2 0.2-0.4 0.4-0.7 0.6 -0.3 0.1-0.5 0.2-0.8 0.2 -0.5 0-0.8-0.1-1.1-0.4 -0.3-0.3-0.4-0.7-0.4-1.2C198.6 416.4 198.7 416.1 198.8 415.8L198.8 415.8z"/><path d="M213.6 413.2h-1.2l-0.6 3.7c0 0.1 0 0.1 0 0.3 0 0.1 0 0.2 0 0.3h-0.1l-2.1-4.2h-1.1l-1.1 6.3h1.2l0.7-3.8c0 0 0-0.1 0-0.2 0-0.1 0-0.2 0-0.3h0l2.2 4.3 1.1-0.1L213.6 413.2 213.6 413.2z"/><path d="M193.5 413.2h-1.2l-1.1 6.3h1.2L193.5 413.2 193.5 413.2z"/><path d="M178.3 413.2h-1.4c-0.3 0.4-0.6 1-0.9 1.5 -0.3 0.5-0.6 1.1-0.9 1.7 -0.3 0.6-0.6 1.1-0.8 1.7 -0.3 0.5-0.5 1-0.6 1.4h1.3c0.1-0.1 0.1-0.3 0.2-0.4 0.1-0.1 0.1-0.3 0.2-0.5 0.1-0.2 0.1-0.3 0.2-0.5 0.1-0.1 0.1-0.3 0.2-0.4h2.2c0 0.1 0 0.3 0 0.5l0 0.5c0 0.1 0 0.3 0.1 0.5 0 0.1 0 0.3 0 0.4l1.2-0.1c0-0.2 0-0.5 0-0.8 0-0.3-0.1-0.7-0.1-1 0-0.4-0.1-0.7-0.2-1.1 0-0.4-0.1-0.8-0.2-1.1 -0.1-0.4-0.1-0.8-0.2-1.1C178.5 413.8 178.4 413.5 178.3 413.2L178.3 413.2zM177.5 415c0 0.2 0.1 0.4 0.1 0.6 0 0.2 0.1 0.4 0.1 0.6 0 0.2 0 0.3 0.1 0.4h-1.6c0.1-0.1 0.2-0.3 0.3-0.5 0.1-0.2 0.2-0.4 0.3-0.6 0.1-0.2 0.2-0.4 0.3-0.6 0.1-0.2 0.2-0.3 0.3-0.5h0.1C177.5 414.7 177.5 414.8 177.5 415L177.5 415z"/><path d="M187.9 414.3l0.2-1.1h-4.3l-0.2 1.1h1.5l-0.9 5.1h1.2l0.9-5.1H187.9L187.9 414.3z"/><path d="M167.8 413.1c-0.4 0-0.7 0-1.1 0 -0.3 0-0.7 0.1-1 0.2l-1.1 6c0.3 0.1 0.7 0.1 1.1 0.2 0.4 0.1 0.8 0.1 1.1 0.1 0.5 0 1-0.1 1.4-0.2 0.5-0.2 0.9-0.4 1.2-0.7 0.3-0.3 0.6-0.7 0.8-1.2 0.2-0.5 0.3-1 0.3-1.5 0-0.5-0.1-0.8-0.2-1.2 -0.1-0.4-0.3-0.6-0.6-0.9 -0.3-0.2-0.6-0.4-0.9-0.5C168.6 413.2 168.2 413.1 167.8 413.1L167.8 413.1zM167.5 414.2c0.3 0 0.5 0 0.7 0.1 0.2 0 0.4 0.1 0.5 0.3 0.2 0.1 0.3 0.3 0.4 0.5 0.1 0.2 0.1 0.4 0.1 0.8 0 0.4 0 0.8-0.2 1.1 -0.1 0.3-0.3 0.6-0.4 0.8 -0.2 0.2-0.4 0.4-0.7 0.5 -0.3 0.1-0.6 0.2-0.9 0.2 -0.1 0-0.3 0-0.5 0 -0.2 0-0.4 0-0.5-0.1l0.7-4c0.1 0 0.2 0 0.4-0.1C167.3 414.2 167.5 414.2 167.5 414.2L167.5 414.2z"/><path d="M130.6 389.8c0.4 0.6 0.7 1.2 0.9 1.8 0.2 0.6 0.3 1.2 0.3 1.8 0 0.3 0 0.6-0.1 1 0 0.4-0.1 0.7-0.1 0.9l-2.7 14.1h4.8l2.8-15.2c0.7-0.5 1.4-0.9 2.2-1.2 0.8-0.3 1.5-0.4 2.1-0.4 0.6 0 1.2 0.2 1.6 0.6 0.4 0.4 0.6 0.9 0.6 1.6 0 0.2 0 0.5-0.1 0.9 -0.1 0.4-0.1 0.7-0.2 1l-1.2 5.6c-0.1 0.4-0.2 0.9-0.3 1.4 -0.1 0.5-0.1 0.9-0.1 1.2 0 1.4 0.4 2.5 1.1 3.4 0.7 0.9 2 1.4 3.9 1.6l2.1-4.3c-0.7-0.1-1.2-0.4-1.6-0.8 -0.3-0.4-0.5-1-0.5-1.7 0-0.2 0-0.4 0-0.6 0-0.2 0.1-0.4 0.1-0.5l1.2-5.7c0.1-0.5 0.2-1 0.2-1.5 0.1-0.5 0.1-0.9 0.1-1.4 0-1.7-0.5-3-1.5-4 -1-1-2.4-1.5-4.1-1.5 -1 0-2 0.2-2.9 0.5 -0.9 0.3-2.1 0.8-3.4 1.6 0-0.3-0.2-0.7-0.3-1.1 -0.2-0.4-0.4-0.8-0.6-1.1L130.6 389.8 130.6 389.8z"/><path d="M160.9 379.5h-4.7l-3.6 19.5c-0.2 0.7-0.3 1.3-0.4 2.1 -0.1 0.7-0.1 1.4-0.1 2 0 1.9 0.4 3.5 1.1 4.8 0.8 1.2 2 2 3.8 2.2l2.2-4.4c-0.3-0.2-0.7-0.4-0.9-0.5 -0.3-0.2-0.5-0.4-0.7-0.7 -0.2-0.3-0.3-0.6-0.4-1 -0.1-0.4-0.1-0.9-0.1-1.5 0-0.3 0-0.6 0.1-0.9 0-0.4 0.1-0.7 0.1-1.1L160.9 379.5 160.9 379.5z"/><path d="M150.8 413.2h-1.2l-0.8 4.6c-0.2 0.2-0.4 0.3-0.6 0.5 -0.3 0.1-0.5 0.2-0.8 0.2 -0.3 0-0.5-0.1-0.7-0.2 -0.2-0.1-0.3-0.4-0.3-0.7 0-0.1 0-0.2 0-0.3 0-0.1 0-0.2 0-0.3l0.7-3.7h-1.2l-0.7 3.6c0 0.1 0 0.3 0 0.4 0 0.1 0 0.3 0 0.4 0 0.3 0.1 0.6 0.1 0.9 0.1 0.3 0.2 0.4 0.4 0.6 0.2 0.1 0.4 0.3 0.6 0.3 0.2 0.1 0.5 0.1 0.7 0.1 0.6 0 1.2-0.2 1.7-0.6 0 0.1 0 0.2 0 0.3 0 0.1 0 0.2 0 0.3l1.2-0.1c0-0.1 0-0.2 0-0.3 0-0.1 0-0.2 0-0.3 0-0.2 0-0.4 0-0.6 0-0.2 0-0.5 0.1-0.7L150.8 413.2 150.8 413.2z"/><path d="M160.9 413.2h-1.2l-0.6 3.7c0 0.1 0 0.1 0 0.3 0 0.1 0 0.2 0 0.3H159l-2.1-4.2h-1.1l-1.1 6.3h1.2l0.7-3.8c0 0 0-0.1 0-0.2 0-0.1 0-0.2 0-0.3h0l2.2 4.3 1.1-0.1L160.9 413.2 160.9 413.2z"/><path d="M140.2 413.8c-0.2-0.2-0.5-0.4-0.8-0.5 -0.3-0.1-0.7-0.2-1-0.2 -0.5 0-0.9 0.1-1.4 0.3 -0.4 0.2-0.8 0.5-1.1 0.8 -0.3 0.3-0.6 0.7-0.8 1.2 -0.2 0.5-0.3 0.9-0.3 1.5 0 0.4 0.1 0.8 0.2 1.1 0.1 0.3 0.3 0.6 0.5 0.9 0.2 0.2 0.5 0.4 0.8 0.6 0.3 0.1 0.7 0.2 1.1 0.2 0.5 0 0.9-0.1 1.3-0.3s0.8-0.5 1.1-0.8c0.3-0.3 0.6-0.7 0.8-1.2 0.2-0.5 0.3-0.9 0.3-1.5 0-0.4-0.1-0.8-0.2-1.1C140.6 414.3 140.4 414.1 140.2 413.8L140.2 413.8zM136.7 415c0.2-0.2 0.4-0.4 0.7-0.6s0.5-0.2 0.8-0.2c0.5 0 0.8 0.2 1.1 0.4 0.3 0.3 0.4 0.7 0.4 1.2 0 0.3-0.1 0.6-0.2 1 -0.1 0.3-0.2 0.6-0.4 0.8 -0.2 0.2-0.4 0.4-0.7 0.6 -0.3 0.1-0.5 0.2-0.8 0.2 -0.5 0-0.8-0.1-1.1-0.4 -0.3-0.3-0.4-0.7-0.4-1.2 0-0.3 0-0.6 0.2-1C136.4 415.5 136.6 415.2 136.7 415L136.7 415z"/><path d="M131.4 413.2h-3.4l-1.1 6.3h1.2l0.4-2.4h2.3l0.2-1.1h-2.3l0.3-1.6h2.2L131.4 413.2 131.4 413.2z"/><path fill="#98BF00" d="M111 383.9c0.4-3.7-0.5-6.9-2.7-9.8 -2.3-2.9-5.2-4.6-8.9-5 -3.7-0.4-6.9 0.5-9.8 2.7 -2.7 2.1-4.3 4.8-4.9 8.1 0 0.3-0.1 0.6-0.1 0.8 0 0.3-0.1 0.6-0.1 0.8 -0.1 1.5 0 3 0.4 4.4 0.5 1.6 1.2 3.2 2.4 4.6 1.1 1.5 2.4 2.6 3.9 3.4 1.2 0.7 2.6 1.2 4.2 1.5 0.3 0 0.5 0.1 0.8 0.1 0.1 0 0.3 0 0.4 0.1 0.4-1.5 0.9-2.9 1.7-4.1 -0.5 0-1.1 0-1.6 0 0 0-0.1 0-0.1 0 -0.6-0.1-1.2-0.2-1.8-0.4 -1.7-0.6-3.2-1.6-4.4-3.1 -1.2-1.5-1.8-3.2-1.9-5 0-0.6 0-1.2 0.1-1.8 0 0 0 0 0-0.1 0.3-2.5 1.5-4.5 3.5-6.1 2-1.6 4.3-2.2 6.8-1.9 2.5 0.3 4.6 1.5 6.1 3.5 1.6 2 2.2 4.3 1.9 6.8 -0.1 0.6-0.2 1.1-0.3 1.6 1.4-0.5 2.9-0.7 4.4-0.7C110.9 384.2 110.9 384.1 111 383.9L111 383.9z"/><path fill="#98BF00" d="M112.7 386.1c-0.3 0-0.5-0.1-0.8-0.1 -1.5-0.1-3 0.1-4.4 0.4 -1.6 0.4-3.2 1.3-4.6 2.4 -1.5 1.1-2.6 2.4-3.4 3.9 -0.7 1.2-1.2 2.6-1.5 4.2 1.5 0.2 2.8 0.7 4 1.3 0.1-0.6 0.2-1.2 0.4-1.7 0.6-1.7 1.6-3.2 3.1-4.4 1.5-1.2 3.2-1.8 5-2 0.6 0 1.2 0 1.8 0.1 0 0 0 0 0 0 2.5 0.3 4.5 1.5 6.1 3.5 1.6 2 2.2 4.2 1.9 6.8 -0.3 2.5-1.5 4.6-3.5 6.1 -2 1.6-4.2 2.2-6.7 1.9 0.3 1.4 0.4 2.8 0.3 4.2 3.3 0.2 6.3-0.7 9-2.8 2.9-2.3 4.6-5.2 5-8.9 0.5-3.7-0.5-6.9-2.7-9.8 -2.1-2.7-4.8-4.3-8.1-4.9C113.2 386.2 113 386.2 112.7 386.1L112.7 386.1z"/><path d="M111.6 395.2c-1.2-0.1-2.2 0.2-3.1 0.9 -0.9 0.7-1.4 1.6-1.6 2.8 -0.1 1.2 0.1 2.2 0.9 3.1 0.7 0.9 1.6 1.4 2.8 1.6 1.1 0.1 2.2-0.1 3.1-0.9 0.9-0.7 1.4-1.6 1.6-2.8 0.1-1.1-0.1-2.2-0.9-3.1C113.6 395.9 112.7 395.4 111.6 395.2L111.6 395.2z"/><path fill="#98BF00" d="M72.8 393.5c0.3-2.5 1.5-4.6 3.5-6.1 2-1.6 4.2-2.2 6.7-1.9 -0.3-1.4-0.4-2.8-0.3-4.2 -3.3-0.2-6.3 0.7-9 2.8 -2.9 2.3-4.6 5.2-5 8.9 -0.5 3.7 0.4 6.9 2.7 9.8 2.1 2.7 4.8 4.3 8.1 4.9 0.3 0.1 0.5 0.1 0.8 0.1 0.3 0 0.5 0.1 0.8 0.1 1.5 0.1 3-0.1 4.4-0.4 1.6-0.5 3.2-1.3 4.6-2.4 1.4-1.1 2.6-2.4 3.4-3.9 0.7-1.2 1.2-2.6 1.5-4.2 -1.5-0.3-2.8-0.7-4-1.3 -0.1 0.6-0.2 1.2-0.4 1.7 -0.6 1.7-1.6 3.2-3.1 4.4 -1.5 1.2-3.2 1.8-5 2 -0.6 0-1.2 0-1.8-0.1 0 0 0 0 0 0 -2.5-0.3-4.5-1.5-6.1-3.5C73.2 398.3 72.5 396 72.8 393.5L72.8 393.5z"/><path d="M79.4 391.3c-0.9 0.7-1.4 1.6-1.6 2.8 -0.1 1.1 0.1 2.1 0.9 3.1 0.7 0.9 1.6 1.5 2.8 1.6 1.2 0.1 2.2-0.2 3.1-0.9 0.9-0.7 1.4-1.7 1.6-2.8 0.1-1.2-0.1-2.2-0.9-3.1 -0.7-0.9-1.6-1.4-2.8-1.6C81.3 390.3 80.3 390.6 79.4 391.3L79.4 391.3z"/><path d="M101 379.7c-0.7-0.9-1.7-1.4-2.8-1.6 -1.2-0.1-2.2 0.1-3.1 0.9 -0.9 0.7-1.5 1.6-1.6 2.8 -0.2 1.1 0.1 2.2 0.9 3.1 0.7 0.9 1.6 1.4 2.8 1.6 1.1 0.1 2.2-0.2 3.1-0.9 0.9-0.7 1.4-1.7 1.6-2.8C102 381.7 101.7 380.6 101 379.7L101 379.7z"/><path fill="#98BF00" d="M96.9 398.5c-0.1 0-0.3 0-0.4-0.1 -0.4 1.5-0.9 2.9-1.7 4.1 0.5 0 1.1 0 1.6 0 0 0 0 0 0.1 0 0.6 0.1 1.2 0.2 1.8 0.4 1.7 0.6 3.2 1.6 4.4 3.1 1.2 1.5 1.8 3.2 1.9 5 0 0.6 0 1.2-0.1 1.8 0 0 0 0 0 0.1 -0.3 2.5-1.5 4.5-3.5 6.1 -2 1.6-4.3 2.2-6.8 1.9 -2.5-0.3-4.6-1.5-6.1-3.5 -1.6-2-2.2-4.3-1.9-6.8 0.1-0.6 0.2-1.1 0.4-1.6 -1.4 0.5-2.9 0.7-4.4 0.7 0 0.1 0 0.3-0.1 0.5 -0.4 3.7 0.5 6.9 2.7 9.8 2.3 2.9 5.2 4.6 8.9 5 3.7 0.4 6.9-0.5 9.8-2.7 2.7-2.1 4.3-4.8 4.9-8.1 0-0.3 0.1-0.5 0.1-0.8 0-0.3 0.1-0.6 0.1-0.8 0.1-1.6 0-3-0.4-4.4 -0.5-1.6-1.3-3.2-2.4-4.6 -1.1-1.5-2.4-2.6-3.9-3.4 -1.3-0.7-2.7-1.2-4.2-1.5C97.5 398.5 97.2 398.5 96.9 398.5L96.9 398.5z"/><path d="M98.6 409.1c-0.7-0.9-1.6-1.4-2.8-1.6 -1.2-0.1-2.2 0.1-3.1 0.9 -0.9 0.7-1.4 1.6-1.6 2.8 -0.1 1.2 0.2 2.2 0.9 3.1 0.7 0.9 1.6 1.4 2.8 1.6 1.2 0.1 2.2-0.1 3.1-0.9 0.9-0.7 1.4-1.6 1.6-2.8C99.6 411.1 99.3 410 98.6 409.1L98.6 409.1z"/></svg>