<svg xmlns:svg="http://www.w3.org/2000/svg" xmlns="http://www.w3.org/2000/svg" version="1.1" x="0" y="0" viewBox="210.5 322.5 150 150" enable-background="new 210.5 322.5 150 150" xml:space="preserve"><g transform="translate(-115.94417,-501.42131)"><path fill="#404137" d="M402.2 878.7c-0.1 0-0.2 0-0.3 0.1 -0.2 0.1-0.3 0.3-0.3 0.5v15.4c0 0.2-0.1 0.3-0.2 0.4 -0.1 0.1-0.3 0.1-0.4 0l-2.5-1.4c-0.4-0.2-0.8-0.2-1.2 0l-10 5.8c-0.4 0.2-0.6 0.6-0.6 1.1v11.6c0 0.4 0.2 0.8 0.6 1l10 5.8c0.4 0.2 0.8 0.2 1.2 0l10-5.8c0.4-0.2 0.6-0.6 0.6-1v-28.9c0-0.4-0.2-0.9-0.6-1.1l-6-3.3C402.4 878.7 402.3 878.7 402.2 878.7L402.2 878.7zM337.6 893.2c-0.2 0-0.4 0-0.5 0.1l-10 5.8c-0.4 0.2-0.6 0.6-0.6 1l0 15.6c0 0.2 0.1 0.4 0.3 0.5 0.2 0.1 0.4 0.1 0.6 0l6-3.4c0.4-0.2 0.6-0.6 0.6-1v-7.3c0-0.4 0.2-0.8 0.6-1l2.5-1.5c0.2-0.1 0.4-0.2 0.6-0.2 0.2 0 0.4 0.1 0.6 0.2l2.5 1.5c0.4 0.2 0.6 0.6 0.6 1v7.3c0 0.4 0.2 0.8 0.6 1l6 3.4c0.2 0.1 0.4 0.1 0.6 0 0.2-0.1 0.3-0.3 0.3-0.5l0-15.6c0-0.4-0.2-0.8-0.6-1l-10-5.8c-0.2-0.1-0.4-0.1-0.5-0.1H337.6L337.6 893.2zM427.8 893.3c-0.2 0-0.4 0.1-0.6 0.2l-10 5.8c-0.4 0.2-0.6 0.6-0.6 1v11.6c0 0.4 0.2 0.8 0.6 1l10 5.7c0.4 0.2 0.8 0.2 1.2 0l6-3.4c0.2-0.1 0.3-0.3 0.3-0.5 0-0.2-0.1-0.4-0.3-0.5l-10.1-5.8c-0.2-0.1-0.3-0.3-0.3-0.5v-3.6c0-0.2 0.1-0.4 0.3-0.5l3.1-1.8c0.2-0.1 0.4-0.1 0.6 0l3.1 1.8c0.2 0.1 0.3 0.3 0.3 0.5v2.9c0 0.2 0.1 0.4 0.3 0.5 0.2 0.1 0.4 0.1 0.6 0l6-3.5c0.4-0.2 0.6-0.6 0.6-1v-2.8c0-0.4-0.2-0.8-0.6-1l-10-5.8C428.3 893.4 428.1 893.3 427.8 893.3L427.8 893.3zM397.8 902c0.1 0 0.1 0 0.2 0l3.4 2c0.1 0.1 0.2 0.2 0.2 0.3v4c0 0.1-0.1 0.2-0.2 0.3l-3.4 2c-0.1 0.1-0.2 0.1-0.3 0l-3.4-2c-0.1-0.1-0.2-0.2-0.2-0.3v-4c0-0.1 0.1-0.2 0.2-0.3l3.4-2C397.7 902 397.8 902 397.8 902L397.8 902z"/><path fill="#83CD29" d="M457.9 893.1c-0.3 0-0.7 0.1-1 0.2l-9.5 5.5c-0.6 0.4-1 1-1 1.7v10.9c0 0.7 0.4 1.4 1 1.7l2.5 1.4c1.2 0.6 1.6 0.6 2.2 0.6 1.8 0 2.8-1.1 2.8-3v-10.8c0-0.2-0.1-0.3-0.3-0.3h-1.2c-0.2 0-0.3 0.1-0.3 0.3v10.8c0 0.8-0.9 1.7-2.3 1l-2.6-1.5c-0.1 0-0.2-0.1-0.2-0.2v-10.9c0-0.1 0.1-0.2 0.2-0.3l9.5-5.5c0.1-0.1 0.2-0.1 0.3 0l9.5 5.5c0.1 0.1 0.2 0.2 0.2 0.3v10.9c0 0.1-0.1 0.2-0.1 0.3l-9.5 5.5c-0.1 0-0.2 0-0.3 0l-2.4-1.4c-0.1 0-0.2 0-0.2 0 -0.7 0.4-0.8 0.4-1.4 0.6 -0.2 0.1-0.4 0.1 0.1 0.4l3.2 1.9c0.3 0.2 0.6 0.3 1 0.3 0.4 0 0.7-0.1 1-0.3l9.5-5.5c0.6-0.4 1-1 1-1.7v-10.9c0-0.7-0.4-1.4-1-1.7l-9.5-5.5C458.6 893.1 458.3 893.1 457.9 893.1L457.9 893.1zM367.8 893.3c-0.2 0-0.4 0.1-0.6 0.2l-10 5.8c-0.4 0.2-0.6 0.6-0.6 1.1v11.6c0 0.4 0.2 0.8 0.6 1l10 5.8c0.4 0.2 0.8 0.2 1.2 0l10-5.8c0.4-0.2 0.6-0.6 0.6-1v-11.6c0-0.4-0.2-0.9-0.6-1.1l-10-5.8C368.2 893.3 368 893.3 367.8 893.3zM472 893.3v0.3h0.8v2.1h0.3v-2.1h0.8v-0.3H472zM474.2 893.3v2.4h0.3v-1.4c0-0.1 0-0.1 0-0.3 0-0.1 0-0.2 0-0.3v-0.1l0.7 2h0.3l0.7-2c0 0.1 0 0.2 0 0.4 0 0.1 0 0.2 0 0.2v1.4h0.3v-2.4H476l-0.7 2 -0.7-2L474.2 893.3 474.2 893.3zM460.5 900.9c-2.7 0-4.3 1.1-4.3 3.1 0 2.1 1.6 2.6 4.2 2.9 3.1 0.3 3.3 0.8 3.3 1.4 0 1.1-0.8 1.5-2.8 1.5 -2.5 0-3.1-0.6-3.2-1.9 0-0.1-0.1-0.2-0.3-0.2h-1.2c-0.2 0-0.3 0.1-0.3 0.3 0 1.6 0.9 3.5 5 3.5 3 0 4.7-1.2 4.7-3.2 0-2-1.4-2.6-4.3-3 -2.9-0.4-3.2-0.6-3.2-1.3 0-0.6 0.2-1.3 2.4-1.3 1.9 0 2.7 0.4 3 1.7 0 0.1 0.1 0.2 0.3 0.2h1.2c0.1 0 0.1 0 0.2-0.1 0.1-0.1 0.1-0.1 0.1-0.2C465 901.9 463.5 900.9 460.5 900.9L460.5 900.9zM427.8 903.6c0 0-0.1 0-0.1 0l-1.9 1.1c-0.1 0-0.1 0.1-0.1 0.2v2.2c0 0.1 0 0.2 0.1 0.2l1.9 1.1c0.1 0 0.1 0 0.2 0l1.9-1.1c0.1 0 0.1-0.1 0.1-0.2V905c0-0.1 0-0.2-0.1-0.2l-1.9-1.1C427.9 903.6 427.9 903.6 427.8 903.6z"/></g></svg>