<svg xmlns="http://www.w3.org/2000/svg" version="1.1" x="0" y="0" width="32" height="32" viewBox="0 0 32 32" enable-background="new 0 0 32 32" xml:space="preserve"><path fill-rule="evenodd" clip-rule="evenodd" fill="#333333" d="M31.4 7.6l-6-6C25 1.2 24.5 1 24 1H3C1.3 1 0 2.3 0 4v24c0 1.7 1.3 3 3 3h26c1.7 0 3-1.3 3-3V9C32 8.5 31.8 8 31.4 7.6zM30 28c0 0.6-0.4 1-1 1H3c-0.6 0-1-0.4-1-1V4c0-0.6 0.4-1 1-1h20v4h0c0 1.7 1.3 3 3 3h1H30V28zM27 9h-1c-1.1 0-2-0.9-2-2H24V3l6 6H27zM15.5 8h5C20.8 8 21 7.8 21 7.5S20.8 7 20.5 7h-5C15.2 7 15 7.2 15 7.5S15.2 8 15.5 8zM15.5 11h5c0.3 0 0.5-0.2 0.5-0.5S20.8 10 20.5 10h-5c-0.3 0-0.5 0.2-0.5 0.5S15.2 11 15.5 11zM15 13.5c0 0.3 0.2 0.5 0.5 0.5h12c0.3 0 0.5-0.2 0.5-0.5S27.8 13 27.5 13h-12C15.2 13 15 13.2 15 13.5zM27.5 19h-23C4.2 19 4 19.2 4 19.5 4 19.8 4.2 20 4.5 20h23c0.3 0 0.5-0.2 0.5-0.5C28 19.2 27.8 19 27.5 19zM27.5 22h-23C4.2 22 4 22.2 4 22.5 4 22.8 4.2 23 4.5 23h23c0.3 0 0.5-0.2 0.5-0.5C28 22.2 27.8 22 27.5 22zM27.5 25h-23C4.2 25 4 25.2 4 25.5 4 25.8 4.2 26 4.5 26h23c0.3 0 0.5-0.2 0.5-0.5C28 25.2 27.8 25 27.5 25zM27.5 16h-23C4.2 16 4 16.2 4 16.5S4.2 17 4.5 17h23c0.3 0 0.5-0.2 0.5-0.5S27.8 16 27.5 16zM5 14h7c0.6 0 1-0.4 1-1V7c0-0.6-0.4-1-1-1H5C4.4 6 4 6.4 4 7v6C4 13.6 4.4 14 5 14zM6 8h5v4H6V8z"/></svg>