<svg xmlns="http://www.w3.org/2000/svg" version="1.1" x="0" y="0" width="32" height="32" viewBox="0 0 32 32" enable-background="new 0 0 32 32" xml:space="preserve"><path fill="#333333" d="M31.543 0.16C31.377 0.053 31.188 0 31 0c-0.193 0-0.387 0.055-0.555 0.168l-30 20c-0.309 0.205-0.479 0.566-0.439 0.936 0.038 0.369 0.278 0.688 0.623 0.824l7.824 3.131 3.679 6.438c0.176 0.309 0.503 0.5 0.857 0.504 0.004 0 0.007 0 0.011 0 0.351 0 0.677-0.186 0.857-0.486l2.077-3.463 9.695 3.877C25.748 31.977 25.873 32 26 32c0.17 0 0.338-0.043 0.49-0.129 0.264-0.148 0.445-0.408 0.496-0.707l5-30C32.051 0.771 31.877 0.377 31.543 0.16zM3.136 20.777L26.311 5.326 9.461 23.363c-0.089-0.053-0.168-0.123-0.266-0.162L3.136 20.777zM10.189 24.066c-0.002-0.004-0.005-0.006-0.007-0.01L29.125 3.781 12.976 28.943 10.189 24.066zM25.217 29.609l-8.541-3.416c-0.203-0.08-0.414-0.107-0.623-0.119L29.205 5.686 25.217 29.609z"/></svg>