<svg xmlns="http://www.w3.org/2000/svg" version="1.1" x="0" y="0" width="32" height="32" viewBox="0 0 32 32" enable-background="new 0 0 32 32" xml:space="preserve"><path fill="#333333" d="M29.4 2.58C27.75 0.94 25.58 0 23.45 0c-1.8 0-3.46 0.67-4.67 1.88l-4.87 4.9c-0.01 0.01-0.03 0.02-0.05 0.04 -0.01 0.01-0.01 0.02-0.02 0.03l0 0L3.52 17.26c-0.48 0.47-0.82 1.06-1.01 1.71l-2.35 8.51C0.15 27.49 0 28.16 0 28.5 0 30.43 1.57 32 3.5 32c0.39 0 1.13-0.18 1.16-0.19l8.48-2.23c0.64-0.19 1.23-0.54 1.71-1.02l15.26-15.38C32.88 10.41 32.57 5.75 29.4 2.58zM16.01 23.8c-0.08-0.9-0.34-1.79-0.72-2.63l9.46-9.45c0.58 1.83 0.28 3.74-0.99 5 -0.01 0.01-0.02 0.01-0.02 0.02l0.01 0.01 -7.73 7.79C16.02 24.29 16.04 24.05 16.01 23.8zM14.79 20.26c-0.37-0.61-0.8-1.2-1.32-1.73 -0.61-0.61-1.31-1.09-2.04-1.49l9.53-9.53c0.75 0.33 1.47 0.81 2.1 1.44 0.54 0.54 0.96 1.14 1.28 1.77L14.79 20.26zM10.49 16.56c-0.93-0.37-1.9-0.59-2.87-0.6l7.7-7.76c1.18-1.15 2.9-1.48 4.59-1.06L10.49 16.56zM4.17 29.87C4.06 29.9 3.72 29.98 3.49 30 2.67 29.99 2 29.32 2 28.5c0.01-0.17 0.08-0.46 0.1-0.56l1.05-3.81c1.14-0.03 2.37 0.41 3.34 1.38 0.98 0.98 1.44 2.23 1.39 3.39L4.17 29.87zM8.87 28.64c-0.02-1.34-0.57-2.74-1.67-3.84C6.16 23.76 4.8 23.15 3.44 23.1l1-3.61c0.07-0.24 0.22-0.48 0.39-0.68 2.01-1.44 5.09-1.01 7.23 1.13 2.27 2.27 2.62 5.59 0.87 7.57 -0.12 0.06-0.23 0.12-0.36 0.16L8.87 28.64zM28.69 11.77l-1.68 1.7c0-0.23 0.03-0.44 0.01-0.67 -0.18-1.93-1.08-3.81-2.54-5.27 -1.63-1.63-3.79-2.56-5.93-2.57l1.66-1.67C21.03 2.46 22.18 2 23.45 2c1.61 0 3.26 0.73 4.53 2 1.19 1.19 1.9 2.67 2.01 4.17C30.08 9.56 29.62 10.84 28.69 11.77z"/></svg>