<svg xmlns="http://www.w3.org/2000/svg" version="1.1" x="0" y="0" viewBox="-107.6 322.2 150 150" enable-background="new -107.6 322.2 150 150" xml:space="preserve"><path fill="#6CCB94" fill-opacity="0.996" d="M-82.3 322.2l-8.5 41.6 24.5 23.1 -15.9 28.4 32.4 57h35.4l32.5-57L2 386.9l23.7-23.1 -7.8-41.6 -33.3 44.3h-33.3L-82.3 322.2z"/><path fill="#5DBD85" fill-opacity="0.996" d="M-82.2 415.3l15.9-28.4 34.2 28.4H-82.2z"/><path fill="#64C48C" fill-opacity="0.996" d="M-66.3 386.9l34.2 28.4 -16.6-48.7L-66.3 386.9z"/><path fill="#6ECC95" fill-opacity="0.996" d="M18 415.3L2 386.9l-34.2 28.4H18z"/><path fill="#5EBE86" fill-opacity="0.996" d="M-49.9 472.3h35.4l-17.7-57L-49.9 472.3z"/><path fill="#76D29C" fill-opacity="0.996" d="M2 386.9l-34.2 28.4 16.7-48.7L2 386.9z"/><path fill="#74D09B" fill-opacity="0.996" d="M17.9 322.2l7.8 41.6L2 386.9l-17.4-20.4L17.9 322.2z"/><path fill="#64C48C" fill-opacity="0.996" d="M-32.2 415.3l17.7 57 32.5-57H-32.2z"/><path fill="#58B880" fill-opacity="0.996" d="M-32.2 415.3l-17.7 57 -32.4-57H-32.2z"/><path fill="#5FBF87" fill-opacity="0.996" d="M-82.3 322.2l-8.5 41.6 24.5 23.1 17.6-20.4L-82.3 322.2z"/><path fill="#6ECC95" fill-opacity="0.996" d="M-32.2 415.3l16.7-48.7h-33.3L-32.2 415.3z"/></svg>