<svg xmlns="http://www.w3.org/2000/svg" version="1.1" x="0" y="0" width="32" height="32" viewBox="0 0 32 32" enable-background="new 0 0 32 32" xml:space="preserve"><path fill="#333333" d="M31.9 12.6c-0.3-0.8-1-1.4-1.8-1.5l-8.3-1.2 -3.6-7.5C17.7 1.5 16.9 1 16 1c-0.9 0-1.7 0.5-2.1 1.3l-3.6 7.5 -8.3 1.2c-0.9 0.1-1.6 0.7-1.8 1.5 -0.3 0.8-0.1 1.7 0.5 2.3l6.1 6.1 -1.4 8.5C5.2 30.2 5.6 31.1 6.3 31.6 6.7 31.9 7.2 32 7.6 32c0.4 0 0.8-0.1 1.1-0.3L16 27.8l7.3 3.9C23.6 31.9 24 32 24.4 32c0.5 0 0.9-0.1 1.3-0.4 0.7-0.5 1.1-1.4 0.9-2.2l-1.4-8.5 6.1-6.1C31.9 14.2 32.2 13.4 31.9 12.6zM23.6 19.4c-0.5 0.5-0.7 1.2-0.6 1.9l1.4 8.5 -7.3-3.9c-0.3-0.2-0.7-0.3-1.1-0.3 -0.4 0-0.8 0.1-1.1 0.3l-7.3 3.9 1.4-8.5c0.1-0.7-0.1-1.4-0.6-1.9l-6.1-6.1 8.3-1.2c0.8-0.1 1.4-0.6 1.7-1.3L16 3.3l3.6 7.5c0.3 0.7 1 1.2 1.7 1.3l8.3 1.2L23.6 19.4z"/></svg>