<svg xmlns="http://www.w3.org/2000/svg" version="1.1" x="0" y="0" width="32" height="32" viewBox="0 0 32 32" enable-background="new 0 0 32 32" xml:space="preserve"><path fill-rule="evenodd" clip-rule="evenodd" fill="#333333" d="M31.25 6.44l-5-4C25.9 2.15 25.45 2 25 2H7C6.55 2 6.11 2.15 5.75 2.44l-5 4C0.1 6.96-0.16 7.84 0.1 8.63l2 6c0.2 0.59 0.66 1.06 1.25 1.26C3.56 15.96 3.78 16 4 16c0.35 0 0.69-0.09 1-0.27V28c0 1.1 0.9 2 2 2h18c1.1 0 2-0.9 2-2V15.73C27.31 15.91 27.65 16 28 16c0.22 0 0.44-0.04 0.65-0.11 0.59-0.2 1.05-0.67 1.25-1.26l2-6C32.16 7.84 31.9 6.96 31.25 6.44zM19.75 4C19.2 5.16 17.74 6 16 6c-1.74 0-3.2-0.84-3.75-2H19.75zM28 14l-3-2v16H7V12l-3 2L2 8l5-4h4.18C11.73 5.72 13.67 7 16 7c2.33 0 4.27-1.28 4.82-3H25l5 4L28 14z"/></svg>