<svg xmlns="http://www.w3.org/2000/svg" version="1.1" x="0" y="0" viewBox="0 0 367.6 367.6" enable-background="new 0 0 367.6 367.6" xml:space="preserve"><path d="M342.6 0H25C11.2 0 0 11.2 0 25v317.6c0 13.8 11.2 25 25 25h317.6c13.8 0 25-11.2 25-25V25C367.6 11.2 356.4 0 342.6 0z"/><path fill="#FFFFFF" d="M93.8 225.6c0.7 0 1.3 0.6 1.3 1.3v10.3c0 0.7-0.6 1.3-1.3 1.3H61.9c-0.7 0-1.3-0.6-1.3-1.3v-10.3c0-0.7 0.6-1.3 1.3-1.3h6.7c0.7 0 1.3-0.6 1.3-1.3v-43.7c0-0.7-0.6-1.3-1.3-1.3h-9.1c-0.7 0-1.3 0.6-1.3 1.3v11.1c0 0.7-0.6 1.3-1.3 1.3H46c-0.7 0-1.3-0.6-1.3-1.3V168c0-0.7 0.6-1.3 1.3-1.3h63.9c0.7 0 1.3 0.6 1.3 1.3v23.7c0 0.7-0.6 1.3-1.3 1.3h-11c-0.7 0-1.3-0.6-1.3-1.3v-11.1c0-0.7-0.6-1.3-1.3-1.3h-9.1c-0.7 0-1.3 0.6-1.3 1.3v43.7c0 0.7 0.6 1.3 1.3 1.3H93.8z"/><path fill="#FFFFFF" d="M138.9 189.6c7.3-6.6 9.5-7.6 14.8-7.6h3.8c0.7 0 1.9 0.1 2.6 0.2 0 0 6.6 0.9 8.8 3 2.4 2.3 3.3 5.2 3.3 13.5V225c0 0.7 0.6 1.3 1.3 1.3h4.7c0.7 0 1.3 0.6 1.3 1.3v9.6c0 0.7-0.6 1.3-1.3 1.3h-26c-0.7 0-1.3-0.6-1.3-1.3v-9.5c0-0.7 0.6-1.3 1.3-1.3h3.5c0.7 0 1.3-0.6 1.3-1.3v-23.5c0-0.7-0.1-1.9-0.1-2.6 0 0-0.3-2.4-1.1-3.3 -0.9-0.9-2-1.2-4.7-1.2h-1.8c-0.7 0-1.9 0.1-2.6 0.1 0 0-3.8 0.5-7.6 2.2v28.2c0 0.7 0.6 1.3 1.3 1.3h3.5c0.7 0 1.3 0.6 1.3 1.3v9.5c0 0.7-0.6 1.3-1.3 1.3h-26.3c-0.7 0-1.3-0.6-1.3-1.3v-9.6c0-0.7 0.6-1.3 1.3-1.3h5c0.7 0 1.3-0.6 1.3-1.3v-44.7c0-0.7-0.6-1.3-1.3-1.3h-5c-0.7 0-1.3-0.6-1.3-1.3V168c0-0.7 0.6-1.3 1.3-1.3h20.3c0.7 0 1.3 0.6 1.3 1.3V189.6z"/><path fill="#FFFFFF" d="M185.3 238.5c-0.7 0-1.3-0.6-1.3-1.3v-9.6c0-0.7 0.6-1.3 1.3-1.3h5.3c0.7 0 1.3-0.6 1.3-1.3v-29.3c0-0.7-0.6-1.3-1.3-1.3h-5.3c-0.7 0-1.3-0.6-1.3-1.3v-9.7c0-0.7 0.6-1.3 1.3-1.3H206c0.7 0 1.3 0.6 1.3 1.3v41.7c0 0.7 0.6 1.3 1.3 1.3h5c0.7 0 1.3 0.6 1.3 1.3v9.5c0 0.7-0.6 1.3-1.3 1.3H185.3z"/><path fill="#FFFFFF" d="M249 226.3c0.7 0 1.3 0.6 1.3 1.3v9.6c0 0.7-0.6 1.3-1.3 1.3h-28c-0.7 0-1.3-0.6-1.3-1.3v-9.6c0-0.7 0.6-1.3 1.3-1.3h5c0.7 0 1.3-0.6 1.3-1.3v-29.3c0-0.7-0.6-1.3-1.3-1.3h-5c-0.7 0-1.3-0.6-1.3-1.3v-9.7c0-0.7 0.6-1.3 1.3-1.3h20.3c0.7 0 1.3 0.6 1.3 1.3v6c0 0.7 0.4 0.9 0.9 0.4 0 0 7.9-7.8 12.4-7.8h3.7c0.7 0 1.3 0.6 1.3 1.3V196c0 0.7-0.6 1.3-1.3 1.3H256c-0.7 0-1.9 0-2.6 0.1 0 0-6.3 0.3-10.8 2.2V225c0 0.7 0.6 1.3 1.3 1.3H249z"/><path fill="#FFFFFF" d="M300.4 231.2c-7.1 6.2-9.4 7.4-14.1 7.4h-3.7c-0.7 0-1.9-0.1-2.6-0.1 0 0-7.8-0.9-10.3-3.3 -3.4-3.4-4.7-8.3-4.7-24.8 0-16.6 1.6-21.3 5.1-24.8 2.5-2.5 5.7-3.5 11.4-3.5h4c0.7 0 1.9 0.1 2.6 0.2 0 0 6 0.8 12.4 6.2v-12c0-0.7-0.6-1.3-1.3-1.3h-5c-0.7 0-1.3-0.6-1.3-1.3v-9.6c0-0.7 0.6-1.3 1.3-1.3h20.4c0.7 0 1.3 0.6 1.3 1.3V225c0 0.7 0.6 1.3 1.3 1.3h5c0.7 0 1.3 0.6 1.3 1.3v9.6c0 0.7-0.6 1.3-1.3 1.3h-20.4c-0.7 0-1.3-0.6-1.3-1.3V231.2zM300.4 224v-26.1c0-0.7-0.5-1.5-1.2-1.8 0 0-4.5-1.9-7.2-1.9h-3.5c-0.7 0-1.9 0-2.6 0.1 0 0-2.9 0.3-3.8 1.2 -1.3 1.3-1.7 3.9-1.7 14.7 0 10.8 0.4 13.2 1.7 14.7 0.9 0.9 2.3 1.2 5.1 1.2h4.8C294.5 226.2 297 225.6 300.4 224z"/><path fill="#FFFFFF" d="M113.4 248.9c0.7 0 1.4 0.6 1.5 1.3l10.8 53.4c0.1 0.7 0.5 1.3 0.8 1.3 0.3 0 0.7-0.6 0.8-1.3l6.9-40.5c0.1-0.7-0.4-1.3-1.1-1.3h-5.6c-0.7 0-1.3-0.6-1.3-1.3v-10.2c0-0.7 0.6-1.3 1.3-1.3h28.1c0.7 0 1.3 0.6 1.3 1.3v10.2c0 0.7-0.6 1.3-1.3 1.3h-4.5c-0.7 0-1.4 0.6-1.6 1.3l-10.9 51.5c-0.1 0.7-0.5 1.8-0.9 2.4 0 0-2.1 4.1-6.1 4.1h-10.3c-0.7 0-1.9-0.1-2.5-0.3 0 0-4.6-1.1-5.3-5l-9.2-44.2c-0.1-0.7-0.5-1.3-0.8-1.3 -0.3 0-0.6 0.6-0.8 1.3l-8.8 42.9c-0.1 0.7-0.5 1.8-0.8 2.4 0 0-2 4.2-6 4.2H76.9c-0.7 0-1.9-0.1-2.5-0.3 0 0-4.5-1-5.4-5L57.7 263c-0.2-0.7-0.8-1.3-1.6-1.3h-4.5c-0.7 0-1.3-0.6-1.3-1.3v-10.2c0-0.7 0.6-1.3 1.3-1.3H81c0.7 0 1.3 0.6 1.3 1.3v10.2c0 0.7-0.6 1.3-1.3 1.3h-5.6c-0.7 0-1.2 0.6-1.1 1.3l6.9 40.5c0.1 0.7 0.5 1.3 0.8 1.3 0.3 0 0.7-0.6 0.9-1.3l10.9-53.4c0.1-0.7 0.8-1.3 1.5-1.3H113.4z"/><path fill="#FFFFFF" d="M183.5 276.9c-0.7-0.6-1.7-0.8-4.1-0.8h-5.6c-0.7 0-1.9 0-2.6 0.1 0 0-2 0.1-2.6 0.7 -0.8 0.8-0.9 2.2-1.1 5.5h-13.3c-0.7 0-1.2-0.6-1.2-1.3 0 0 1-11.4 3.3-13.7 2.3-2.3 4.9-3.2 10.1-3.2h18.2c0.7 0 1.9 0.1 2.6 0.2 0 0 7.3 0.9 9.4 2.9 2.6 2.5 3.3 5.4 3.3 14.8v25.1c0 0.7 0.6 1.3 1.3 1.3h4.7c0.7 0 1.3 0.6 1.3 1.3v9.6c0 0.7-0.6 1.3-1.3 1.3h-20c-0.7 0-1.3-0.6-1.3-1.3v-3.7c0-0.7-0.5-1-1.1-0.6 0 0-8.1 5.6-12.9 5.6h-5.5c-0.7 0-1.9 0-2.6-0.1 0 0-6.4-0.5-8.7-2.8 -1.9-1.9-3.3-5.3-3.3-12.7 0-7 1.1-11.5 3.5-13.8 2.7-2.7 6.7-3.8 15.9-3.8 5 0 10.1 0.6 14.6 1.6v-4.8C184.5 278.9 184.2 277.7 183.5 276.9zM184.5 306.7v-8.6c0-0.7-0.6-1.3-1.3-1.3h-6.7c-0.7 0-1.9 0-2.6 0.1 0 0-6.2 0.3-7.1 1.3 -1 1-1.2 2.5-1.2 5.1 0 3 0.2 4.6 1 5.4 0.7 0.7 2 0.9 4 0.9h3.2C176.9 309.7 179.4 309.3 184.5 306.7z"/><path fill="#FFFFFF" d="M205.4 276.6c-0.7 0-1.3-0.6-1.3-1.3v-9.7c0-0.7 0.6-1.3 1.3-1.3h26.2c0.7 0 1.3 0.6 1.3 1.3v9.7c0 0.7-0.6 1.3-1.3 1.3h-4c-0.7 0-1.1 0.5-0.9 1.2l8.7 26.3c0.2 0.7 0.7 1.2 1 1.2 0.3 0 0.8-0.6 1-1.2l8.8-26.3c0.2-0.7-0.2-1.2-0.9-1.2h-4.1c-0.7 0-1.3-0.6-1.3-1.3v-9.7c0-0.7 0.6-1.3 1.3-1.3h25.3c0.7 0 1.3 0.6 1.3 1.3v9.7c0 0.7-0.6 1.3-1.3 1.3H263c-0.7 0-1.5 0.5-1.7 1.2L246.8 316c-0.2 0.7-0.8 1.7-1.1 2.3 0 0-1.7 2.6-4.6 2.6h-8.7c-0.7 0-1.9-0.1-2.5-0.2 0 0-2.9-0.5-4.1-3.5L211 277.8c-0.2-0.7-1-1.2-1.7-1.2H205.4z"/><path fill="#FFFFFF" d="M286.2 296.4c0.1 9.2 0.6 11 1.3 11.7 0.7 0.8 1.7 1 4.9 1h6.6c0.7 0 1.9 0 2.6-0.1 0 0 2.7-0.2 3.3-0.9 0.5-0.6 0.7-2.1 0.8-6.2h13c0.7 0 1.2 0.6 1.2 1.3 0 0-0.9 11.4-3.7 14.2 -1.7 1.7-4.1 3.3-10 3.3h-17.5c-0.7 0-1.9-0.1-2.6-0.1 0 0-7.4-0.8-9.9-3.3 -3.7-3.7-5.1-8.1-5.1-24.7 0-16.6 1.4-21 5.1-24.8 2.4-2.5 5.4-3.4 11.2-3.4H303c0.7 0 1.9 0.1 2.6 0.1 0 0 7.6 0.8 10 3.3 3.7 3.7 4.5 8.5 4.5 24.7v0.5c0 0.7-0.1 1.8-0.2 2.4 -0.1 0.6-2.6 1.1-3.3 1.1H286.2zM286.2 287.7H304c0.7 0 1.3-0.6 1.2-1.3 0 0-0.4-8.8-1.2-9.6 -0.6-0.6-1.5-0.9-4.7-0.9h-5.6c-0.7 0-1.9 0-2.6 0.1 0 0-2.9 0.1-3.7 1C286.7 277.6 286.3 279.5 286.2 287.7z"/><path fill="#FFFFFF" d="M207.6 168.4c0 5-4.1 9.1-9.1 9.1 -5 0-9.1-4.1-9.1-9.1 0-5 4.1-9.1 9.1-9.1C203.5 159.2 207.6 163.3 207.6 168.4z"/></svg>