<svg xmlns="http://www.w3.org/2000/svg" version="1.1" id="Layer_1" x="0" y="0" viewBox="0 0 150 150" enable-background="new 0 0 150 150" xml:space="preserve"><path fill="#E6C9A9" d="M87.5 137.3c-0.8 0.1-1.6 0.2-2.4 0.3 -0.5 0-1 0.1-1.5 0.1l-0.2 0c0.6-1.4 1.1-2.4 1.4-3.2C85.6 135.3 86.5 136.3 87.5 137.3z"/><path fill="#B2A08B" d="M48 96.8c1.8-1 3.7-0.8 6.9-0.8 0.3 0 0.7 0 1 0 0.3 0 0.6 0 0.9 0 3.2 0 5.9 0.3 5.8-4.8 0-5-2.3-9.1-5.5-9.1 -3.2 0-6.3 4.2-6.1 9.2 0.1 1.3 0.2 2.3 0.6 2.9C48.8 95 48 96.7 48 96.8zM86.6 76.1c-1.2 1-2.6 1.9-3.9 2.8l-4.6 2.7c-2.9 0.3-5.3 1.1-5.5 1.1 -0.1 0-0.2 0.1-0.2 0.1 -0.2 0.1-0.4 0.3-0.5 0.6l-4.6 15.3 -24.8 5.5 -7.8-5.5 -2.3-18.4c4.4-0.8 10.4-1.8 17.5-2.6 -0.8 0.9-1.5 1.9-2.2 2.9l-4.2 6.1 6.2-4.1c0.1-0.1 4-2.7 10.5-5.8 6.4-0.5 13.5-0.8 21-0.8C83 76.1 84.8 76.1 86.6 76.1z"/><path fill="#B2A08B" d="M113.7 94.8c0-0.1-0.7-2.1-3.7-1.8 0.3-0.7 0.5-1.8 0.4-3.1 -0.4-5-3.3-9-6.5-8.9 -3.2 0.1-5.3 4.3-5.1 9.3 0.2 5 2.9 5 6.1 4.9C109.2 95.1 111.5 93.7 113.7 94.8zM129.5 80.3l-2.2 15.6 -7.9 5.5 -24.7-2.8 -4.6-15.2c-0.1-0.3-0.4-0.6-0.7-0.7 -0.2 0-3.2-0.9-6.5-1.2l0.6 0c0.5 0 9-1.1 19.2-4.6C114 77.8 123.2 79.2 129.5 80.3z"/><path fill="#FFFFFF" d="M105.2 85.7c0 0.9-0.7 1.6-1.6 1.7 -0.9 0-1.7-0.7-1.7-1.6 0-0.9 0.7-1.7 1.6-1.7C104.5 84.1 105.2 84.8 105.2 85.7z"/><path fill="#FFFFFF" d="M59.3 86.9c0 0.9-0.7 1.7-1.6 1.7 -0.9 0-1.7-0.7-1.7-1.6 0-0.9 0.7-1.7 1.6-1.7C58.5 85.3 59.3 86 59.3 86.9z"/><path fill="#E6C9A9" d="M140.3 87.2c-0.4-0.3-1.7-1.1-2.9-1.7l-2.1 14.5c0 0.3-0.2 0.5-0.4 0.7l-3 2.1c-0.1 0.4-0.1 0.6-0.2 0.9 2.9 0.7 5.7-1.4 7.3-2.9 0.7-2.9 1.4-6.3 1.6-8.7C141 88.3 140.7 87.5 140.3 87.2z"/><path fill="#E6C9A9" d="M94.5 142.4c-1.9-0.7-3.7-1.8-5.2-3.3 -0.1-0.1-0.2-0.3-0.4-0.4 -1.2 0.2-2.4 0.4-3.6 0.5 -0.5 0-1 0.1-1.6 0.1l-0.8 0 -0.3 0c-1.8 2.7-4.9 4.2-7.4 5C82.4 145.6 90.3 143.7 94.5 142.4z"/><path fill="#E6C9A9" d="M31.1 106.8c-0.1-0.2-0.1-0.4-0.2-0.7l-3.9-2.7c-0.2-0.2-0.4-0.4-0.4-0.7l-1.9-15.3c-1.4 0.7-3 1.7-3.4 2 -0.4 0.3-0.7 1.1-0.3 4.7 0.3 2.7 1.3 6.9 2.2 10.1l0 0C25.3 105.8 28.1 107.4 31.1 106.8z"/><path fill="#FFFFFF" d="M41.1 112.9c-0.1 0-0.2 0-0.2 0 0 0 0 0 0 0C40.9 112.9 41 112.9 41.1 112.9z"/><path fill="#FFFFFF" d="M34.1 108.4c0 0.1 0.1 0.2 0.1 0.2C34.2 108.6 34.1 108.5 34.1 108.4L34.1 108.4z"/><path fill="#E6C9A9" d="M88.7 106.1c-0.4 0-0.8-0.3-0.9-0.7l-4.8-15.7c-0.8-0.1-1.5-0.2-2.1-0.2 -0.6 0-1.3 0.1-2.1 0.2l-4.6 15.2c-0.1 0.4-0.4 0.6-0.8 0.7l-2.2 0.5c-0.2 0.8-0.8 1.9-2.9 2.6 -3.3 1-24.3 7.3-26.6 6.9 -1.4-0.2-4-1.7-6-2.8 -0.8-1.8-1.2-3.1-1.3-3.4v0l0 0c0.3 0.8 3 8.7 8.6 16.4 6-1.8 11.1-3.4 12.7-3.9 3.3-5.2 8.1-10.3 11.5-10.5 0.6 0 1.2 0 1.8 0 1.7 0 3.2 0.1 4.7 0.3 -1.2-1.1-1.5-2.5-1.7-3 0 0 4.3 3.4 9.8 2.7 5.5-0.7 8.9-3.9 8.9-3.9l0.1-1L88.7 106.1z"/><polygon fill="#FFFFFF" points="39.1 111.9 40.2 112.7 39.1 111.9 35.5 109.4 35.5 109.4 "/><path fill="#E6C9A9" d="M93.2 108.1c-1.1-0.3-1.9-0.8-2.3-1.3l-0.1 0.5c0 0 0 2.3-2.4 4.1 4.6-1.4 6.5-1.9 7.8-1.9 1.4 0 2.2 0.6 2.8 1.1 0.1 0.1 0.2 0.2 0.4 0.3 3.6 2.8 7.8 6.2 9.1 7.2 1.4 0.2 6 0.7 8.9 1 1.7 0.2 3.2 0.3 4.6 0.3 0.5 0 0.9 0 1.3 0 1.5-2.9 2.9-6.1 4.2-9.7 -1.7 1.2-5.6 3.8-7.4 4.2C117.7 114.3 96.5 109 93.2 108.1z"/><path fill="#FFFFFF" d="M127.6 109.6c0.1-0.4 0.3-0.8 0.4-1.1C127.8 108.8 127.7 109.2 127.6 109.6z"/><path fill="#FFFFFF" d="M121.6 109.8c-0.1 0-0.1 0-0.2 0C121.4 109.8 121.5 109.8 121.6 109.8z"/><path fill="#E3DB9C" d="M146.6 53.3c0-0.5-0.1-1-0.2-1.5 0-0.4-0.1-0.7-0.2-1.1 -1.3-1.1-2.9-2.1-4.4-3 -1.7-1-3.5-1.9-5.3-2.7 -1.8-0.9-3.7-1.6-5.6-2.4 -0.9-0.4-1.9-0.8-2.8-1.1 -0.9-0.4-1.9-0.7-2.9-1.1 2 0.3 4 0.8 6 1.3 1.3 0.3 2.6 0.7 3.8 1.1 -9-23.6-30.7-39-54.3-39 -23.6 0-45.2 15.4-54.3 39 1.3-0.4 2.6-0.8 3.8-1.1 2-0.5 4-1 6-1.3 -1 0.3-1.9 0.7-2.9 1.1 -0.9 0.4-1.9 0.7-2.8 1.1 -1.9 0.8-3.7 1.5-5.6 2.4 -1.8 0.8-3.6 1.7-5.3 2.7 -1.6 0.9-3.1 1.9-4.4 3 -0.1 0.3-0.1 0.7-0.2 1.1 -0.1 0.5-0.1 1-0.2 1.5 -0.1 1-0.1 2-0.1 3 0 2 0.1 4.1 0.4 6.1 0.3 2 0.6 4 1.2 5.9 0.3 1 0.6 1.9 0.9 2.8 0.2 0.5 0.4 0.9 0.6 1.4 0.1 0.2 0.2 0.4 0.3 0.6l0.1 0.2c0.1 0.1 0.3 0.2 0.5 0.2l0.9 0.4c0.5 0.2 1.2 0.6 1.8 0.8 0 0 0.1-0.1 0.1-0.1l-1.7-6.4c0.4-0.1 3.5-0.9 9-2 -0.4-0.1-0.9-0.2-1.3-0.3 -1.2-0.3-2.5-0.7-3.7-1.2 -0.6-0.2-1.2-0.5-1.7-0.8 -0.6-0.3-1.1-0.7-1.5-1.2 6 2 18.4 1.1 29.4-0.1 10.1-1 20.2-1.7 30.3-1.7 10.2 0 20.3 0.7 30.3 1.7 11 1.1 23.4 2 29.4 0.1 -0.4 0.5-1 0.8-1.5 1.2 -0.6 0.3-1.1 0.6-1.7 0.8 -1.2 0.5-2.4 0.9-3.7 1.2 -0.2 0-0.4 0.1-0.6 0.1 6 1.1 9.5 2 9.8 2.1l-1.6 6.1c0.3-0.1 0.6-0.3 1-0.4l0.9-0.4c0.1-0.1 0.3-0.2 0.5-0.2l0.1-0.2c0.1-0.2 0.2-0.4 0.3-0.6 0.2-0.4 0.4-0.9 0.6-1.4 0.4-0.9 0.7-1.9 0.9-2.8 0.5-1.9 0.9-3.9 1.2-5.9 0.3-2 0.4-4 0.4-6.1C146.7 55.3 146.6 54.3 146.6 53.3z"/><path fill="#DFC78B" d="M105.6 41.5c0.1 2.7 0 7.6-1.2 12.2 -0.1 0.2 0 0.4 0 0.5 -1.6-0.2-3.2-0.3-4.8-0.4 1.8-3.8 2.2-7.8 2.3-9.2C103.2 43.6 104.6 42.4 105.6 41.5z"/><path fill="#DFC78B" d="M59.7 44.6c0.1 1.4 0.5 5.4 2.3 9.2 -1.6 0.1-3.2 0.3-4.8 0.4 0-0.2 0-0.3 0-0.5 -1.3-4.6-1.3-9.5-1.2-12.2C56.9 42.4 58.3 43.6 59.7 44.6z"/><path fill="#DFC78B" d="M132.4 61.1C132.5 61.1 132.5 61.1 132.4 61.1L132.4 61.1z"/><path fill="#DFC78B" d="M125.3 58c0 0 0 0.1 0 0.1 0.2 0.1 0.3 0.1 0.5 0.2 1.5 0.5 3 1 4.4 1.6 -2.4-1.5-3.9-6-4.7-9.4C125.7 55 125.3 57.8 125.3 58z"/><path fill="#DFC78B" d="M132.2 61c0.1 0.1 0.2 0.1 0.3 0.1C132.4 61.1 132.3 61 132.2 61z"/><path fill="#DFC78B" d="M131.6 60.7c0.2 0.1 0.4 0.2 0.6 0.3C132 60.9 131.8 60.8 131.6 60.7z"/><path fill="#DFC78B" d="M131.6 60.7C131.6 60.7 131.6 60.7 131.6 60.7L131.6 60.7C131.6 60.7 131.6 60.7 131.6 60.7z"/><path fill="#DFC78B" d="M53.9 40.7L38.6 45c-0.9 6-0.6 10.5-0.5 12.1l0.1 0c0 0 0.5-6.5 1.5-9 0.5-1.3 3.7-2.1 6.2-2.7 2.4-0.6 6.4-1.7 7.1 1.7 0.5 2.1 1.1 3.9 1.7 5.2C53.7 47.6 53.8 42.9 53.9 40.7z"/><path fill="#DFC78B" d="M107.5 40.7c0.1 2.4 0.2 7.3-0.9 12.2 0.7-1.3 1.5-3.3 2-5.7 0.8-3.4 4.7-2.3 7.1-1.7 2.4 0.6 5.7 1.4 6.2 2.7 0.9 2.1 1.4 7.1 1.5 8.6 0.1-1.9 0.3-6.2-0.5-11.6L107.5 40.7z"/><path fill="#DFC78B" d="M59.5 42c0.5 0.4 1.1 0.9 1.7 1.2 0.3 0.2 0.4 0.5 0.4 0.8 0 0.1 0.1 5.1 2.3 9.4 0 0.1 0.1 0.1 0.1 0.2 5.5-0.4 11.1-0.5 16.7-0.5 5.6 0 11.1 0.2 16.7 0.5 0-0.1 0-0.1 0.1-0.2 2.2-4.3 2.3-9.3 2.3-9.4 0-0.3 0.2-0.6 0.4-0.8 0.5-0.4 1.1-0.8 1.6-1.2l0.1-0.2c1.2-11.3-1-21.7-2.3-26.8 -0.1 3.5-0.9 33.6-8.4 33.6 -7.9 0-9.5 0-9.5 0h-1.6c0 0-1.6 0-9.5 0 -7.9 0-8.6-34-8.6-34l-0.4 1.2C60.3 21.3 58.4 31.2 59.5 42z"/><path fill="#DFC78B" d="M104.8 33.7l-0.1-0.5c0 0.2 0 0.5 0 0.7L104.8 33.7z"/><path fill="#DFC78B" d="M29 61.1C29 61.1 29 61.1 29 61.1L29 61.1z"/><path fill="#DFC78B" d="M29.8 60.7C29.8 60.7 29.9 60.7 29.8 60.7L29.8 60.7C29.9 60.7 29.8 60.7 29.8 60.7z"/><path fill="#DFC78B" d="M29.8 60.7c-0.2 0.1-0.4 0.2-0.6 0.3C29.4 60.9 29.6 60.8 29.8 60.7z"/><path fill="#DFC78B" d="M29.3 61C29.1 61 29 61.1 29 61.1 29 61.1 29.1 61 29.3 61z"/><path fill="#DFC78B" d="M36.2 58.1c0 0 0-0.1 0-0.1 0-0.2-0.4-3-0.2-7.4 -0.8 3.4-2.3 7.8-4.7 9.4 1.4-0.7 2.9-1.2 4.4-1.7C35.9 58.2 36 58.2 36.2 58.1z"/><path fill="#A99580" d="M131.7 103.7c-0.1 0.7-0.2 1.2-0.4 2 1.7 0.4 4.5 0.7 5.8 0.4 0.6-0.6 1.3-2.8 2-5.3C137.5 102.3 134.6 104.4 131.7 103.7z"/><path fill="#A99580" d="M70.8 145.3c4.1 1.1 8.2 1.6 12.3 1.3 4.1-0.3 9.4-1.2 15.1-3.5 -1.3-0.1-2.5-0.4-3.7-0.8 -4.2 1.3-12.1 3.2-19.3 1.9 -1.9 0.6-3.4 0.8-3.5 0.8C71.4 145.2 71.1 145.2 70.8 145.3z"/><path fill="#A99580" d="M31.4 107.7c-0.1-0.3-0.2-0.6-0.3-0.9 -3 0.5-5.8-1-7.8-2.5 0.6 2 1.3 3.6 1.7 4.1C26.5 108.6 29.8 108.2 31.4 107.7z"/><path fill="#A99580" d="M35.8 112.8c2 1.2 4.6 2.6 6 2.8 2.4 0.3 23.3-5.9 26.6-6.9 2-0.6 2.7-1.8 2.9-2.6l-30.2 6.7c-0.1 0-0.2 0-0.2 0 0 0 0 0 0 0 0 0 0 0 0 0 -0.2 0-0.4-0.1-0.6-0.2l-1.2-0.8 -3.5-2.5v0 0l-1.4-1c0 0.1 0.1 0.2 0.1 0.2 0.1 0.2 0.2 0.5 0.2 0.7v0C34.5 109.6 35 110.9 35.8 112.8z"/><path fill="#A99580" d="M128.4 106.9c0.2-0.7 0.4-1.4 0.6-2.2l-1 0.7 -2.8 2 -3.1 2.1c-0.2 0.1-0.3 0.2-0.5 0.2 -0.1 0-0.1 0-0.2 0l-30.4-3.5 -0.1 0.5c0.5 0.5 1.2 1 2.3 1.3 3.3 0.9 24.5 6.2 26.9 5.8 1.8-0.3 5.7-3 7.4-4.2 0 0 0-0.1 0-0.1 0.1-0.4 0.3-0.8 0.4-1.1C128.1 107.9 128.3 107.4 128.4 106.9z"/><path fill="#757071" d="M96.3 66c-0.2 0.3-0.5 0.6-0.8 1 -1.4 1.8-3.4 4.2-5.8 6.4 -2.8-0.1-5.6-0.1-8.5-0.1 -4.8 0-9.4 0.1-13.8 0.3C73.5 71 81 68.5 89 67 91.4 66.6 93.8 66.2 96.3 66z"/><path fill="#757071" d="M59.9 68.7c-2.2 1.6-4.7 3.5-7.1 6 -6.2 0.6-11.6 1.4-16.1 2.1C43.6 73.6 51.4 70.7 59.9 68.7z"/><path fill="#757071" d="M135.8 81.6l-2.5 17.7 -12.1 8.5 -31.6-3.6 -4.8-15.7c-0.1-0.4-0.4-0.7-0.8-0.7 -1.2-0.2-2.2-0.3-3.1-0.3 -0.9 0-1.9 0.1-3.1 0.3 -0.4 0.1-0.7 0.3-0.8 0.7l-4.6 15.3 -31.4 7L28.6 102l-2.5-19.8c0.5-0.3 1.1-0.6 1.6-0.9 0.8-0.2 1.6-0.3 2.6-0.5l2.3 18.7c0 0.3 0.2 0.5 0.4 0.7l8.6 6c0.2 0.1 0.4 0.2 0.6 0.2 0.1 0 0.2 0 0.2 0l25.8-5.7c0.1 0 0.2-0.1 0.3-0.1 0.2-0.1 0.4-0.3 0.5-0.6l4.7-15.3c1.2-0.3 4.4-1.1 7.2-1.1 2.8 0 6 0.7 7.2 1.1l4.6 15.3c0.1 0.4 0.5 0.7 0.9 0.7l25.8 2.9c0.2 0 0.5 0 0.7-0.2l8.6-6c0.2-0.2 0.4-0.4 0.4-0.7l2.3-16C133.3 81 134.7 81.3 135.8 81.6z"/><path fill="#757071" d="M139 70.5l-2.2 8.4c-4.5-1-14.5-3-28.1-4.3 4.4-1.9 9-4.3 13.1-7.2C129.9 68.5 135.8 69.7 139 70.5z"/><path fill="#757071" d="M23.3 70.5l0.6 2.3c1.7-1.4 3.3-2.5 4.6-3.4C26.3 69.8 24.6 70.2 23.3 70.5z"/><path fill="#A51E28" d="M117.8 66.3C117.8 66.3 117.8 66.3 117.8 66.3c-1.5-0.1-3-0.2-4.5-0.3C114.8 66 116.3 66.1 117.8 66.3 117.8 66.3 117.8 66.3 117.8 66.3z"/><path fill="#A51E28" d="M106.9 72.5c3.4-1.5 6.9-3.4 10.2-5.7C113.7 69.1 110.3 71 106.9 72.5z"/><path fill="#A51E28" d="M110.4 65.8c-3.4-0.2-6.8-0.4-10.2-0.5 -0.2 0.3-0.6 0.9-1.2 1.7 -1.8 2.5-5.4 7-10 10.8 3.5-1.1 17.2-5.7 24.2-11.8C112.3 65.9 111.3 65.8 110.4 65.8z"/><path fill="#A51E28" d="M71.7 68.9c-0.2 0.1-0.5 0.2-0.7 0.3C71.2 69.1 71.5 69 71.7 68.9z"/><path fill="#A51E28" d="M73.3 68.3c-0.3 0.1-0.6 0.2-0.8 0.3C72.7 68.5 73 68.4 73.3 68.3z"/><path fill="#A51E28" d="M70.2 69.5c-0.2 0.1-0.4 0.2-0.6 0.2C69.8 69.6 70 69.5 70.2 69.5z"/><path fill="#A51E28" d="M68.7 70c-0.2 0.1-0.3 0.1-0.5 0.2C68.4 70.2 68.5 70.1 68.7 70z"/><path fill="#A51E28" d="M75 67.8c-0.3 0.1-0.7 0.2-1 0.3C74.3 68 74.6 67.9 75 67.8z"/><path fill="#A51E28" d="M80.7 66.1c-1.2 0.3-2.4 0.7-3.6 1C78.3 66.7 79.5 66.4 80.7 66.1z"/><path fill="#A51E28" d="M77.1 67.1c-0.5 0.2-1.1 0.3-1.6 0.5C76 67.4 76.6 67.3 77.1 67.1z"/><path fill="#A51E28" d="M65.9 71.2C65.9 71.2 65.9 71.2 65.9 71.2 65.9 71.2 65.9 71.2 65.9 71.2z"/><path fill="#A51E28" d="M67.3 70.6c-0.1 0-0.2 0.1-0.3 0.1C67.1 70.7 67.2 70.6 67.3 70.6z"/><path fill="#A51E28" d="M85.5 64.9C85.5 64.9 85.5 64.9 85.5 64.9c-1.7 0-3.4 0-5.2-0.1h0c-2.5 0-5.1 0-7.6 0.1L68 67.1c0 0 0 0-0.1 0 -0.7 0.3-6.8 3.4-12.6 9 0.5-0.3 1-0.5 1.6-0.8 3.2-2.1 11.6-7.2 24.7-10.5C82.9 64.8 84.2 64.8 85.5 64.9z"/><path fill="#A51E28" d="M56.7 65.4c-2.2 0.1-4.3 0.2-6.5 0.3 -2.5 0.1-5 0.3-7.5 0.5 -1.2 0.1-2.5 0.2-3.7 0.3 -0.4 0-0.7 0.1-1.1 0.1 -3.3 2-15.8 9.8-24.4 20.1 0.1-0.2 0.3-0.4 0.5-0.5C29.9 72.7 47.4 67.4 56.7 65.4z"/><path fill="#A51E28" d="M52.7 67.7c-17.2 5.1-31.1 13.4-39.2 19.1C21.6 81.2 35.5 72.8 52.7 67.7z"/><path fill="#A51E28" d="M54.4 67.3c2.9-0.8 5.8-1.5 8.8-2.1 0 0 0 0 0 0C60.2 65.8 57.3 66.5 54.4 67.3z"/><polygon fill="#A51E28" points="127.3 124.4 127.3 124.4 127.3 124.4 "/><path fill="#A51E28" d="M131 120.1c0.1 0 0.2-0.1 0.3-0.1C131.2 120 131.1 120.1 131 120.1z"/><path fill="#A51E28" d="M131.6 119.8c0.1 0 0.1-0.1 0.2-0.1C131.7 119.8 131.7 119.8 131.6 119.8z"/><path fill="#A51E28" d="M130 120.6c0.1-0.1 0.2-0.1 0.4-0.2C130.2 120.5 130.1 120.5 130 120.6z"/><path fill="#A51E28" d="M129.5 120.8c0.1-0.1 0.3-0.1 0.4-0.2C129.8 120.7 129.7 120.8 129.5 120.8z"/><path fill="#A51E28" d="M84.4 129L84.4 129c0.1 0.1 0.2 0.2 0.2 0.2C84.6 129.2 84.5 129.1 84.4 129z"/><path fill="#A51E28" d="M130.5 120.4c0.1-0.1 0.2-0.1 0.3-0.2C130.7 120.3 130.6 120.3 130.5 120.4z"/><path fill="#A51E28" d="M128.7 121.2L128.7 121.2C128.7 121.2 128.8 121.2 128.7 121.2 128.8 121.2 128.7 121.2 128.7 121.2z"/><path fill="#A51E28" d="M128.8 121.2c0.1 0 0.2-0.1 0.3-0.1C128.9 121.1 128.9 121.2 128.8 121.2z"/><path fill="#A51E28" d="M129 121.1c0.1-0.1 0.3-0.1 0.5-0.2C129.3 120.9 129.2 121 129 121.1z"/><path fill="#A51E28" d="M128.7 121.2c-0.1 0-0.2 0.1-0.3 0.1 -1.6 0.8-3.7 1.2-6.4 1.2 -1.6 0-3.2-0.1-4.9-0.3 -3.5-0.3-9.4-1-9.5-1l-0.5 0 -0.4-0.3c-0.1 0-5.2-4.2-9.4-7.5 -0.2-0.1-0.3-0.3-0.5-0.4 -0.4-0.4-0.4-0.4-0.7-0.4 -1.3 0-5.2 1.2-13.8 3.9l-0.5 0.2 -0.5-0.2c-0.1 0-5.7-2.1-12.4-2.1 -0.6 0-1.1 0-1.6 0 -0.7 0-4.4 1.8-9.3 9.5l-0.3 0.5 -0.6 0.2c-0.1 0-8.4 2.7-17.2 5.2l-0.6 0.2 -0.5-0.3c-0.1 0-3.5-1.6-6.8-3.1 0.2 0.1 0.5 0.2 0.7 0.3 3.2 2.8 9.4 8.2 10.1 8.9 0.1 0.1 0.2 0.2 0.4 0.4 -0.2-0.2-0.3-0.4-0.5-0.6 0 0 0 0 0 0l0 0 0 0c1.4 1.4 3 2.5 4.8 3.3 0.9 0.4 1.8 0.7 2.7 0.9 0.5 0.1 0.9 0.1 1.4 0.1 0.5 0 1 0 1.5 0 1.9-0.1 3.9-0.2 5.8-0.4 1.9-0.2 3.9-0.4 5.8-0.6 1.9-0.2 3.9-0.5 5.8-0.8 1-0.1 1.9-0.3 2.9-0.5 0.5-0.1 0.9-0.2 1.3-0.4 0.3-0.2 0.7-0.5 1.1-0.8 0.7-0.6 1.4-1.3 2.1-2 0.7-0.7 1.4-1.4 2-2.1 1.1-1.2 2.1-2.5 3.2-3.7 0.1-0.2 0.3-0.3 0.4-0.5 0 0 0 0 0 0l0 0c0.2 0.2 0.5 0.3 0.7 0.5 1.3 1 2.7 2.1 4 3 1.7 1.2 3.4 2.4 5.2 3.4 0.4 0.2 0.9 0.5 1.3 0.6 0.1 0 0.1 0 0.2 0 0 0 0.2 0 0.2 0 0.1 0 0.2 0 0.3 0 0.2 0 0.5 0 0.7 0 1-0.1 2-0.2 3.1-0.4 2-0.3 4.1-0.7 6.1-1.1 2-0.4 4.1-0.8 6.1-1.3 2-0.4 4.1-0.9 6.1-1.4 1-0.3 2-0.5 2.9-0.9 0.9-0.4 1.8-1 2.5-1.7 1.6-1.3 2.9-3 4-4.8 0 0 0 0 0 0C128 123.1 128.4 122 128.7 121.2z"/><polygon fill="#A51E28" points="90.6 25.1 94.2 25.1 94.2 17.8 90.2 17.8 83.1 17.8 67.9 17.8 67.9 25.1 71.5 25.1 71.5 21.4 78.9 21.4 78.9 44 75.8 44 75.8 48.2 86.2 48.2 86.2 44 83.1 44 83.1 21.4 90.6 21.4 "/><path fill="#88162B" d="M106.9 72.5c-6.9 3.1-13.6 4.7-18.1 5.5C93.3 77.1 99.9 75.5 106.9 72.5z"/><path fill="#88162B" d="M89 77.8c-0.1 0.1-0.1 0.1-0.2 0.2C88.9 77.9 88.9 77.8 89 77.8L89 77.8z"/><path fill="#88162B" d="M113.2 65.9C113.2 65.9 113.2 65.9 113.2 65.9 113.2 65.9 113.3 65.9 113.2 65.9 113.3 65.9 113.2 65.9 113.2 65.9z"/><path fill="#88162B" d="M117.8 66.3c-0.2 0.2-0.5 0.4-0.7 0.5C117.3 66.6 117.5 66.4 117.8 66.3z"/><path fill="#88162B" d="M117.8 66.3C117.8 66.3 117.8 66.3 117.8 66.3c-1.5-0.1-3-0.2-4.5-0.3 0 0-0.1 0-0.1 0 -7 6.1-20.7 10.7-24.2 11.8 -0.1 0.1-0.1 0.1-0.2 0.2 4.5-0.8 11.1-2.4 18.1-5.5 3.4-1.5 6.9-3.4 10.2-5.7C117.3 66.6 117.5 66.4 117.8 66.3z"/><path fill="#88162B" d="M56.9 75.3c2.5-1.3 5.5-2.7 8.9-4.1C62.5 72.6 59.5 74 56.9 75.3 56.9 75.3 56.9 75.3 56.9 75.3z"/><path fill="#88162B" d="M74 68.1c-0.2 0.1-0.4 0.2-0.7 0.2C73.5 68.3 73.7 68.2 74 68.1z"/><path fill="#88162B" d="M85.5 64.9c-1.6 0.4-3.2 0.8-4.8 1.2C82.2 65.6 83.9 65.2 85.5 64.9 85.5 64.9 85.5 64.9 85.5 64.9z"/><path fill="#88162B" d="M75.5 67.6c-0.2 0.1-0.4 0.1-0.6 0.2C75.1 67.7 75.3 67.7 75.5 67.6z"/><path fill="#88162B" d="M71 69.2c-0.3 0.1-0.5 0.2-0.8 0.3C70.5 69.4 70.7 69.3 71 69.2z"/><path fill="#88162B" d="M69.6 69.7c-0.3 0.1-0.6 0.2-0.8 0.3C69 69.9 69.3 69.8 69.6 69.7z"/><path fill="#88162B" d="M68.2 70.2c-0.3 0.1-0.6 0.2-0.9 0.4C67.6 70.5 67.9 70.3 68.2 70.2z"/><path fill="#88162B" d="M66.9 70.7c-0.4 0.1-0.7 0.3-1 0.4C66.2 71 66.6 70.9 66.9 70.7z"/><path fill="#88162B" d="M72.4 68.6c-0.2 0.1-0.5 0.2-0.7 0.3C72 68.8 72.2 68.7 72.4 68.6z"/><path fill="#88162B" d="M81.6 64.8c-13.1 3.3-21.6 8.4-24.7 10.5 2.5-1.3 5.5-2.7 8.9-4.1 0 0 0 0 0.1 0 0.3-0.1 0.7-0.3 1-0.4 0.1 0 0.2-0.1 0.3-0.1 0.3-0.1 0.6-0.2 0.9-0.4 0.2-0.1 0.3-0.1 0.5-0.2 0.3-0.1 0.6-0.2 0.8-0.3 0.2-0.1 0.4-0.2 0.6-0.2 0.3-0.1 0.5-0.2 0.8-0.3 0.2-0.1 0.5-0.2 0.7-0.3 0.2-0.1 0.5-0.2 0.7-0.3 0.3-0.1 0.6-0.2 0.8-0.3 0.2-0.1 0.4-0.2 0.7-0.2 0.3-0.1 0.7-0.2 1-0.3 0.2-0.1 0.4-0.1 0.6-0.2 0.5-0.2 1.1-0.3 1.6-0.5 1.2-0.4 2.4-0.7 3.6-1 1.6-0.4 3.2-0.8 4.8-1.2C84.2 64.8 82.9 64.8 81.6 64.8z"/><path fill="#88162B" d="M63.2 65.2c-2.2 0.1-4.3 0.2-6.5 0.3 0 0 0 0 0 0C58.9 65.3 61 65.2 63.2 65.2 63.2 65.2 63.2 65.2 63.2 65.2z"/><path fill="#88162B" d="M56.7 65.4c-9.4 2-26.8 7.3-42.7 20.8 -0.2 0.2-0.3 0.4-0.5 0.5 8.1-5.6 22-14 39.2-19.1 0.6-0.2 1.1-0.3 1.7-0.5 2.9-0.8 5.8-1.5 8.8-2.1C61 65.2 58.9 65.3 56.7 65.4z"/><path fill="#88162B" d="M129.5 120.8C129.5 120.8 129.5 120.8 129.5 120.8 129.5 120.8 129.5 120.8 129.5 120.8z"/><path fill="#88162B" d="M131.7 120.7c0.1-0.3 0.3-0.5 0.4-0.8 0 0 0 0 0 0C132 120.2 131.8 120.4 131.7 120.7z"/><path fill="#88162B" d="M129.9 120.6C129.9 120.6 130 120.6 129.9 120.6 130 120.6 129.9 120.6 129.9 120.6z"/><polygon fill="#88162B" points="84.5 129.1 85.6 130.4 84.5 129.1 "/><path fill="#88162B" d="M131.7 120.7c-0.9 1.7-1.9 3.6-2.8 5.4C129.8 124.3 130.8 122.4 131.7 120.7z"/><path fill="#88162B" d="M117.8 135.8c-0.5 0.1-1 0.2-1.4 0.4C116.8 136.1 117.3 135.9 117.8 135.8z"/><path fill="#88162B" d="M117.8 135.8c2.9-0.7 7-1.6 9.1-5.9C124.8 134.2 120.8 135.1 117.8 135.8z"/><polygon fill="#88162B" points="127.3 124.4 127.3 124.4 127.3 124.4 "/><path fill="#88162B" d="M128.9 126.1c-0.7 1.3-1.3 2.6-1.9 3.8C127.5 128.8 128.2 127.5 128.9 126.1z"/><path fill="#88162B" d="M131.3 120c0.1-0.1 0.2-0.1 0.3-0.2C131.5 119.9 131.4 119.9 131.3 120z"/><path fill="#88162B" d="M85.7 130.6c0.6 0.7 2.9 3.4 5.8 6.2 2.2 2.1 4.7 3.2 7.7 3.2 -3 0-5.6-1.1-7.7-3.2C88.7 134 86.3 131.2 85.7 130.6z"/><path fill="#88162B" d="M130.4 120.4c0 0 0.1 0 0.1-0.1C130.5 120.4 130.4 120.4 130.4 120.4z"/><path fill="#88162B" d="M131.8 119.7c0.2-0.1 0.3-0.2 0.5-0.2C132.1 119.6 132 119.7 131.8 119.7z"/><path fill="#88162B" d="M130.8 120.2c0.1 0 0.1-0.1 0.2-0.1C131 120.1 130.9 120.2 130.8 120.2z"/><path fill="#88162B" d="M102.4 139.6c1-0.2 2.1-0.5 3.2-0.8 3.3-0.8 7-1.7 9.4-2.3 -2.4 0.6-6.1 1.5-9.4 2.3C104.5 139.1 103.4 139.4 102.4 139.6z"/><path fill="#88162B" d="M131.8 119.7c-0.1 0-0.1 0.1-0.2 0.1 -0.1 0.1-0.2 0.1-0.3 0.2 -0.1 0-0.2 0.1-0.3 0.1 -0.1 0-0.1 0.1-0.2 0.1 -0.1 0.1-0.2 0.1-0.3 0.2 0 0-0.1 0-0.1 0.1 -0.1 0.1-0.2 0.1-0.4 0.2 0 0-0.1 0-0.1 0 -0.1 0.1-0.3 0.1-0.4 0.2 0 0 0 0 0 0 -0.3 0.1-0.5 0.3-0.8 0.4 -0.3 0.7-0.7 1.9-1.4 3.1 0 0 0 0 0 0 0 0 0 0 0 0 0 0 0 0 0 0 -1.1 1.8-2.4 3.5-4 4.8 -0.8 0.7-1.6 1.3-2.5 1.7 -0.9 0.4-1.9 0.7-2.9 0.9 -2 0.5-4 1-6.1 1.4 -2 0.5-4.1 0.9-6.1 1.3 -2 0.4-4.1 0.8-6.1 1.1 -1 0.2-2 0.3-3.1 0.4 -0.2 0-0.5 0-0.7 0 -0.1 0-0.2 0-0.3 0 0 0-0.1 0-0.2 0 0 0-0.1 0-0.2 0 -0.4-0.1-0.9-0.4-1.3-0.6 -1.8-1-3.5-2.2-5.2-3.4 -1.3-0.9-2.7-2-4-3l-0.1 0.2 0 0c0.1 0.1 0.2 0.1 0.2 0.2 0 0 0 0 0 0 -0.1 0-0.1-0.1-0.2-0.1l1.1 1.3c0 0 0 0.1 0.1 0.2 0.6 0.7 2.9 3.4 5.8 6.2 2.2 2.1 4.7 3.2 7.7 3.2 1 0 2.1-0.1 3.2-0.4 1-0.2 2.1-0.5 3.2-0.8 3.3-0.8 7-1.7 9.4-2.3 0.2 0 0.3-0.1 0.5-0.1 0.3-0.1 0.7-0.2 0.9-0.3 0.4-0.1 0.9-0.2 1.4-0.4 2.9-0.7 7-1.6 9.1-5.9 0.6-1.2 1.3-2.5 1.9-3.8 0.9-1.8 1.9-3.7 2.8-5.4 0.1-0.3 0.3-0.5 0.4-0.8 0 0 0 0 0 0 0.1-0.1 0.1-0.3 0.2-0.4C132.1 119.6 132 119.7 131.8 119.7z"/><path fill="#88162B" d="M32.2 126.7c0.6 0.8 1.2 1.8 1.9 2.7C33.4 128.5 32.7 127.6 32.2 126.7 32.2 126.7 32.2 126.7 32.2 126.7z"/><polygon fill="#88162B" points="83.6 129 83.6 129 83.6 129 "/><polygon fill="#88162B" points="83.6 129 83.6 129 82.9 130.9 "/><path fill="#88162B" d="M36.9 133.5c-1-1.3-2-2.7-2.9-4.1C35 130.8 36 132.2 36.9 133.5z"/><path fill="#88162B" d="M54.7 143.9c1.1 0 2.2-0.1 3.4-0.2C56.9 143.9 55.8 143.9 54.7 143.9 54.7 143.9 54.7 143.9 54.7 143.9z"/><path fill="#88162B" d="M38.3 135.2c-0.4-0.5-0.9-1.1-1.3-1.7C37.4 134.1 37.8 134.7 38.3 135.2c3.5 4.5 8 8.7 16.5 8.7 0 0 0 0 0 0C46.2 143.9 41.8 139.8 38.3 135.2z"/><path fill="#88162B" d="M76.3 140.5c1.7-0.8 3.3-2 4.2-3.9 2-4.6 2.5-5.7 2.5-5.7 0 0-0.4 1.1-2.5 5.7C79.6 138.4 77.9 139.7 76.3 140.5z"/><path fill="#88162B" d="M70.9 142c0.1 0 0.2 0 0.3 0 0 0 2.5-0.3 5-1.5 -2.4 1.2-4.9 1.5-5 1.5C71.2 142 71.1 142 70.9 142z"/><path fill="#88162B" d="M59.6 143.6c7.4-0.9 9.4-1.2 10.5-1.4 0.3-0.1 0.5-0.1 0.8-0.1 -0.3 0-0.5 0.1-0.8 0.1C69 142.4 67 142.7 59.6 143.6z"/><polygon fill="#88162B" points="42.9 135.8 42.9 135.8 42.9 135.8 "/><path fill="#88162B" d="M83.6 129l-0.2-0.2c-1.1 1.2-2.1 2.5-3.2 3.7 -0.7 0.7-1.4 1.4-2 2.1 -0.7 0.7-1.4 1.4-2.1 2 -0.4 0.3-0.8 0.6-1.1 0.8 -0.4 0.2-0.8 0.3-1.3 0.4 -0.9 0.2-1.9 0.4-2.9 0.5 -1.9 0.3-3.9 0.5-5.8 0.8 -1.9 0.2-3.9 0.4-5.8 0.6 -2 0.2-3.9 0.3-5.8 0.4 -0.5 0-1 0-1.5 0 -0.5 0-0.9 0-1.4-0.1 -0.9-0.2-1.8-0.5-2.7-0.9 -1.7-0.8-3.3-2-4.8-3.3 0 0 0 0 0 0 0.2 0.2 0.4 0.5 0.6 0.7 0 0-0.1-0.1-0.1-0.1 -0.2-0.1-0.3-0.3-0.4-0.4 -0.7-0.7-6.9-6.1-10.1-8.9 -0.2-0.1-0.5-0.2-0.7-0.3 0.6 0.8 1.2 1.8 1.9 2.7 0.9 1.4 1.9 2.8 2.9 4.1 0.4 0.6 0.9 1.2 1.3 1.7 3.5 4.5 8 8.7 16.5 8.7 1.1 0 2.2-0.1 3.4-0.2 0.3 0 0.5-0.1 0.8-0.1 0.2 0 0.5-0.1 0.7-0.1 7.4-0.9 9.4-1.2 10.5-1.4 0.3-0.1 0.5-0.1 0.8-0.1 0.1 0 0.2 0 0.3 0 0 0 2.5-0.3 5-1.5 1.7-0.8 3.3-2 4.2-3.9 2-4.6 2.5-5.7 2.5-5.7L83.6 129 83.6 129z"/><path fill="#07090A" d="M85.7 130.6c0.6 0.7 2.9 3.4 5.8 6.2 2.2 2.1 4.7 3.2 7.7 3.2 -3 0-5.6-1.1-7.7-3.2C88.7 134 86.3 131.2 85.7 130.6z"/><path fill="#07090A" d="M36.9 133.5c-1-1.3-2-2.7-2.9-4.1C35 130.8 36 132.2 36.9 133.5z"/><path fill="#07090A" d="M76.3 140.5c1.7-0.8 3.3-2 4.2-3.9 2-4.6 2.5-5.7 2.5-5.7 0 0-0.4 1.1-2.5 5.7C79.6 138.4 77.9 139.7 76.3 140.5z"/><polygon fill="#07090A" points="84.4 129 85.6 130.4 84.4 129 "/><path fill="#07090A" d="M54.7 143.9c1.1 0 2.2-0.1 3.4-0.2C56.9 143.9 55.8 143.9 54.7 143.9 54.7 143.9 54.7 143.9 54.7 143.9z"/><path fill="#07090A" d="M102.4 139.6c1-0.2 2.1-0.5 3.2-0.8 3.5-0.8 7.4-1.8 9.9-2.4 -2.4 0.6-6.3 1.6-9.9 2.4C104.5 139.1 103.4 139.4 102.4 139.6z"/><path fill="#07090A" d="M58.9 143.7c8-0.9 10.1-1.3 11.3-1.5 0.3-0.1 0.5-0.1 0.8-0.1 -0.3 0-0.5 0.1-0.8 0.1C69 142.4 66.9 142.7 58.9 143.7z"/><path fill="#07090A" d="M131.7 120.7c-0.9 1.7-1.9 3.6-2.8 5.4C129.8 124.3 130.8 122.4 131.7 120.7z"/><polygon fill="#07090A" points="83.6 129 83.6 129 83.6 129 "/><path fill="#07090A" d="M113.7 94.8c-2.2-1-4.5 0.3-8.8 0.4 -3.2 0.1-5.9 0.2-6.1-4.9 -0.2-5 1.9-9.2 5.1-9.3 3.2-0.1 6.1 3.9 6.5 8.9 0.1 1.4 0 2.4-0.4 3.1C113 92.6 113.7 94.7 113.7 94.8zM103.6 87.4c0.9 0 1.6-0.8 1.6-1.7 0-0.9-0.8-1.6-1.7-1.6 -0.9 0-1.6 0.8-1.6 1.7C102 86.7 102.7 87.4 103.6 87.4z"/><path fill="#07090A" d="M62.7 91.3c0 5-2.6 4.7-5.8 4.8 -0.3 0-0.6 0-0.9 0 -0.4 0-0.7 0-1 0 -3.1 0-5.1-0.1-6.9 0.8 0-0.1 0.8-1.8 3.6-2.5 -0.3-0.7-0.5-1.6-0.6-2.9 -0.2-5 2.9-9.2 6.1-9.2C60.4 82.1 62.6 86.2 62.7 91.3zM57.7 88.6c0.9 0 1.6-0.8 1.6-1.7 0-0.9-0.8-1.6-1.7-1.6 -0.9 0-1.6 0.8-1.6 1.7C56.1 87.9 56.8 88.6 57.7 88.6z"/><path fill="#07090A" d="M130.6 60.2c0.1 0 0.3 0.2 0.6 0.3 0.1 0.1 0.3 0.1 0.4 0.2 -0.5-0.3-1-0.5-1.4-0.7C130.3 60 130.4 60.1 130.6 60.2 130.6 60.2 130.6 60.2 130.6 60.2z"/><path fill="#07090A" d="M30.9 60.2C30.9 60.2 30.9 60.2 30.9 60.2c0.2-0.1 0.3-0.2 0.4-0.2 -0.5 0.2-0.9 0.5-1.4 0.7 0.1 0 0.2-0.1 0.3-0.2C30.5 60.3 30.8 60.2 30.9 60.2z"/><path fill="#07090A" d="M131.6 60.7c-0.1-0.1-0.3-0.1-0.4-0.2 -0.2-0.1-0.4-0.2-0.6-0.3 0 0 0 0 0 0 -0.1-0.1-0.3-0.1-0.4-0.2 -1.4-0.7-2.9-1.2-4.4-1.6 -0.2-0.1-0.3-0.1-0.5-0.2 0 0 0-0.1 0-0.1 0-0.2 0.4-3 0.2-7.4 -0.1-1.9-0.3-4.1-0.7-6.5 -0.1-0.4-0.3-0.7-0.7-0.8l-2.2-0.6c-0.5-16.9-7.4-24.8-7.6-25.1 6.2 10 6.2 21.9 6.1 24.6l-13.5-3.8c0 0 0 0 0 0 -0.1 0-0.1 0-0.2 0 0 0 0 0 0 0 -0.1 0-0.1 0-0.2 0 0 0 0 0 0 0 -0.1 0-0.1 0-0.2 0.1 0 0 0 0-0.1 0 0 0-0.1 0.1-0.1 0.1 0 0 0 0 0 0 0 0 0 0 0 0 0 0 0 0 0 0 0 0-0.4 0.4-0.9 0.9 0-1.3 0-3.2-0.1-5.6 0-0.2 0-0.5 0-0.7 -0.4-5.9-1.8-14.3-6-21.6 0 0.1 0.5 1.3 1 3.4 1.4 5.1 3.5 15.5 2.3 26.8 0 0.1 0 0.1 0 0.2 0 0 0 0-0.1 0 -0.5 0.4-1.1 0.8-1.6 1.2 -0.3 0.2-0.4 0.5-0.4 0.8 0 0.1-0.1 5.1-2.3 9.4 0 0.1-0.1 0.1-0.1 0.2 -5.5-0.4-11.1-0.5-16.7-0.5 -5.5 0-11.1 0.2-16.7 0.5 0-0.1 0-0.1-0.1-0.2 -2.2-4.3-2.3-9.3-2.3-9.4 0-0.3-0.2-0.6-0.4-0.8 -0.6-0.4-1.1-0.8-1.7-1.2 -1.1-10.7 0.7-20.7 2.1-26.1 0.6-2.6 1.2-4.1 1.2-4.2 -6.1 10.6-6.3 23.4-6.2 27.9 -0.6-0.5-0.9-0.9-0.9-0.9 0 0 0 0 0 0 0 0 0 0 0 0 0 0 0 0 0 0 0 0-0.1-0.1-0.1-0.1 0 0 0 0-0.1 0 -0.1 0-0.1 0-0.2-0.1 0 0 0 0 0 0 -0.1 0-0.2 0-0.2 0 0 0 0 0-0.1 0 -0.1 0-0.1 0-0.2 0 0 0 0 0 0 0l-13.5 3.8c-0.1-2.8-0.2-14.6 6-24.6 -0.2 0.2-7.2 8.2-7.6 25.1l-2.2 0.6c-0.4 0.1-0.7 0.4-0.7 0.8 -0.4 2.4-0.6 4.6-0.7 6.5 -0.2 4.4 0.2 7.3 0.2 7.4 0 0 0 0.1 0 0.1 -0.2 0.1-0.4 0.1-0.5 0.2 -1.5 0.5-3 1-4.4 1.7 -0.1 0.1-0.3 0.2-0.4 0.2 0 0 0 0 0 0 -0.2 0.1-0.5 0.2-0.6 0.3 -0.1 0.1-0.2 0.1-0.3 0.2 -0.1 0-0.1 0.1-0.2 0.1 1-0.4 2-0.7 3.1-0.9 1-0.3 2.1-0.5 3.1-0.7 2.1-0.4 4.2-0.7 6.3-1 2.1-0.3 4.2-0.5 6.4-0.7 2.1-0.2 4.3-0.4 6.4-0.5 8.5-0.5 17.1-0.7 25.7-0.7 8.6 0 17.1 0.1 25.7 0.7 2.1 0.1 4.3 0.3 6.4 0.5 2.1 0.2 4.3 0.4 6.4 0.7 2.1 0.3 4.2 0.6 6.3 1 1.1 0.2 2.1 0.4 3.1 0.7 1 0.3 2.1 0.5 3.1 0.9C131.7 60.7 131.7 60.7 131.6 60.7zM54.8 54.5c-2.1 0.3-4.3 0.5-6.4 0.9 -2.1 0.4-4.3 0.8-6.4 1.2 -1.3 0.3-2.6 0.6-3.8 1 0-0.1 0-0.3 0-0.5C38 55.5 37.7 51 38.6 45l15.3-4.4c-0.1 2.3-0.2 6.9 0.8 11.6 0.1 0.7 0.3 1.3 0.5 2 0 0.1 0 0.1 0.1 0.2C55.1 54.5 55 54.5 54.8 54.5zM57.1 54.2c0-0.2 0-0.3 0-0.5 -1.3-4.6-1.3-9.5-1.2-12.2 1 0.9 2.4 2.1 3.8 3.1 0.1 1.4 0.5 5.4 2.3 9.2C60.3 53.9 58.7 54.1 57.1 54.2zM104.3 53.7c-0.1 0.2 0 0.4 0 0.5 -1.6-0.2-3.2-0.3-4.8-0.4 1.8-3.8 2.2-7.8 2.3-9.2 1.4-1 2.8-2.2 3.8-3.1C105.7 44.2 105.6 49.1 104.3 53.7zM123.4 56.6c0 0.4-0.1 0.8-0.1 0.9 -1.3-0.3-2.5-0.7-3.8-1 -4.2-0.9-8.5-1.6-12.8-2.1 -0.1 0-0.3 0-0.5 0 0-0.1 0.1-0.1 0.1-0.2 0.1-0.5 0.2-0.9 0.3-1.4 1.1-4.9 1.1-9.8 0.9-12.2l15.3 4.4C123.7 50.5 123.5 54.7 123.4 56.6z"/><path fill="#07090A" d="M29.9 60.6L29.9 60.6c0.1-0.1 0.2-0.1 0.3-0.2C30.1 60.5 30 60.6 29.9 60.6z"/><path fill="#07090A" d="M30.9 60.2C30.9 60.2 30.9 60.2 30.9 60.2 30.9 60.2 30.9 60.2 30.9 60.2z"/><path fill="#07090A" d="M30.9 60.2c-0.1 0-0.3 0.2-0.6 0.3C30.4 60.4 30.6 60.3 30.9 60.2z"/><path fill="#07090A" d="M131.6 60.7L131.6 60.7c-0.1-0.1-0.2-0.1-0.4-0.2C131.3 60.5 131.5 60.6 131.6 60.7z"/><path fill="#07090A" d="M131.2 60.5c-0.3-0.1-0.6-0.3-0.6-0.3C130.8 60.3 131 60.4 131.2 60.5z"/><path fill="#07090A" d="M130.6 60.2C130.6 60.2 130.6 60.2 130.6 60.2 130.6 60.2 130.6 60.2 130.6 60.2z"/><path fill="#07090A" d="M96.9 27.8V15.1H65.2v12.7h9v-3.7h2v17.2h-3.1v9.6h15.8v-9.6h-3.1V24.1h2v3.7H96.9zM83.1 21.4V44h3.1v4.2H75.8V44h3.1V21.4h-7.4v3.7h-3.6v-7.3h15.3 7.1 3.9v7.3h-3.6v-3.7H83.1z"/><polygon fill="#07090A" points="84.4 129 84.4 129 84.4 129 "/><path fill="#07090A" d="M83.8 128.6c0 0 0.3 0.2 0.7 0.5l-0.1-0.1 0.1-0.2c-0.2-0.2-0.5-0.3-0.7-0.5l0 0c0 0 0 0 0 0 -0.1 0.2-0.3 0.3-0.4 0.5l0.1 0.1C83.7 128.7 83.8 128.6 83.8 128.6z"/><polygon fill="#07090A" points="84.4 129 84.4 129 84.5 128.8 84.4 129 "/><path fill="#07090A" d="M149.6 56.2c-0.1-1.1-0.2-2.2-0.3-3.2 -0.1-0.5-0.2-1.1-0.3-1.6 -0.1-0.6-0.2-1.1-0.4-1.7l-0.1-0.4 -0.3-0.2c-1.7-1.3-3.6-2.4-5.4-3.3 -1.6-0.7-3.1-1.4-4.7-2C133.6 31.5 126 20.6 116 13c-10.4-7.9-22.6-12-35.3-12C68 0.9 55.8 5.1 45.5 13c-10 7.6-17.7 18.5-22.1 30.8 -1.6 0.6-3.2 1.2-4.7 2 -1.9 0.9-3.7 1.9-5.4 3.3l-0.3 0.2 -0.1 0.4c-0.2 0.6-0.3 1.1-0.4 1.7 -0.1 0.5-0.2 1.1-0.3 1.6 -0.2 1.1-0.3 2.2-0.3 3.2 -0.1 2.2 0 4.4 0.2 6.5 0.2 2.2 0.6 4.3 1.2 6.4 0.3 1.1 0.6 2.1 1 3.1 0.2 0.5 0.4 1 0.7 1.5 0.1 0.3 0.3 0.5 0.4 0.8l0.2 0.4c0.1 0.1 0.1 0.2 0.3 0.4l0.2 0.3 0.3 0.2c0.4 0.2 0.7 0.3 1 0.5l1 0.4c0.2 0.1 0.3 0.1 0.5 0.2C14.5 81.1 9.7 86.4 5.6 93l-5.2 8.2 7.3-6.4c0.1-0.1 6.3-5.4 16.5-11.5l0.1 1.2c-0.7 0.3-3.9 2-4.9 2.8 -1.6 1.3-1.7 3.4-1.2 7.2 0.2 2 1 5.8 1.9 9.3 1.7 6 3 7.1 4.1 7.3 0.5 0.1 1.1 0.2 1.9 0.2 2 0 4.5-0.4 6.1-0.9 1.9 6 4.7 11.4 8 16.2 -0.2 0-0.3 0.1-0.5 0.1 -2-0.9-9-4.2-11.4-5.2l-4.9-2.2 2.9 4.5c0.2 0.3 5.2 8.2 9.3 13.4 3.8 4.9 9.1 10 19 10 1.2 0 2.4-0.1 3.7-0.2 3-0.3 5.2-0.6 6.9-0.8 10.4 3.8 21.9 4.1 32.7-0.1 3-1.1 5.7-2.5 8.2-4 0.1 0 0.1 0 0.1 0 4-1 8.6-2.1 10.9-2.7 0.4-0.1 0.8-0.2 1.3-0.3 3.2-0.7 8.4-2 11.2-7.6 2.8-5.7 7.5-14.4 7.5-14.5l2.2-4.1 -4.2 1.8c-0.2 0.1-5.6 2.4-8.3 3.9 -0.1 0.1-0.2 0.1-0.3 0.2 2.3-4.6 3.4-8.3 3.8-9.7 1.6 0.4 3.9 0.3 5.5 0.3 0.8 0 1.7-0.1 2.2-0.3 1.1-0.3 2-1 3.5-7.2 0.9-3.6 1.6-7.5 1.8-9.5 0.4-3.9 0.2-6-1.4-7.3 -0.8-0.7-3.1-1.9-4.3-2.5l0.1-0.4c0.6 0.1 0.9 0.2 1 0.2l1.1-4.1c0.4-0.2 0.8-0.3 1.2-0.5 0.7-0.3 1.3-0.5 2-0.8l1-0.4c0.3-0.2 0.6-0.3 1-0.5l0.3-0.2 0.2-0.3c0.1-0.2 0.2-0.3 0.3-0.4l0.2-0.4c0.1-0.3 0.3-0.5 0.4-0.8 0.2-0.5 0.5-1 0.7-1.5 0.4-1 0.7-2.1 1-3.1 0.6-2.1 1-4.3 1.2-6.4C149.7 60.6 149.7 58.4 149.6 56.2zM13.6 86.8c0.1-0.2 0.3-0.4 0.5-0.5 8.6-10 20.7-17.6 23.9-19.5 0.4 0 0.7-0.1 1.1-0.1 1.2-0.1 2.5-0.2 3.7-0.3 2.5-0.2 5-0.4 7.5-0.5 2.2-0.1 4.3-0.2 6.5-0.3 2.2-0.1 4.3-0.2 6.5-0.3 -3 0.6-6 1.3-8.8 2.1C36.4 72.3 21.9 81 13.6 86.8zM23.3 70.5c1.3-0.3 3.1-0.7 5.3-1.1 -1.3 0.9-2.9 2.1-4.6 3.4L23.3 70.5zM49.9 77.8c-0.8 0.9-1.5 1.9-2.2 2.9l-4.2 6.1 6.2-4.1c0.1-0.1 4-2.7 10.5-5.8 6.4-0.5 13.5-0.8 21-0.8 1.8 0 3.7 0 5.4 0.1 -1.2 1-2.6 1.9-3.9 2.8l-4.5 2.7c-2.9 0.3-5.3 1.1-5.5 1.1 -0.1 0-0.2 0.1-0.2 0.1 -0.2 0.1-0.4 0.3-0.5 0.6l-4.6 15.3 -24.8 5.5 -7.8-5.5 -2.3-18.4C36.9 79.5 42.8 78.6 49.9 77.8zM36.7 76.8c6.9-3.2 14.7-6.1 23.2-8 -2.2 1.6-4.7 3.5-7.1 6C46.6 75.3 41.2 76.1 36.7 76.8zM83.5 81.5c0.5 0 9-1.1 19.2-4.6 11.3 0.9 20.5 2.3 26.8 3.4l-2.2 15.6 -7.9 5.5 -24.7-2.8 -4.6-15.2c-0.1-0.3-0.4-0.6-0.7-0.7 -0.2 0-3.2-0.9-6.5-1.2L83.5 81.5zM88.8 77.9c0.1-0.1 0.1-0.1 0.2-0.2 4.6-3.9 8.2-8.4 10-10.8 0.6-0.8 1-1.4 1.2-1.7 3.4 0.1 6.8 0.3 10.2 0.5 0.9 0.1 1.9 0.1 2.8 0.2 1.5 0.1 3 0.2 4.6 0.3 0 0 0 0 0 0 -0.2 0.2-0.5 0.4-0.7 0.5C107 73.8 95.5 76.7 88.8 77.9zM95.5 67c-1.4 1.8-3.4 4.2-5.8 6.4 -2.8-0.1-5.6-0.1-8.5-0.1 -4.8 0-9.4 0.1-13.8 0.3C73.5 71 81 68.5 89 67c2.4-0.4 4.8-0.8 7.2-1.1C96 66.3 95.8 66.6 95.5 67zM77.1 67.1C69 69.6 62 72.7 56.9 75.3c-0.6 0.3-1.1 0.6-1.6 0.8 5.8-5.5 11.9-8.6 12.6-9 0 0 0.1 0 0.1 0l4.7-2.2c2.5 0 5.1-0.1 7.6-0.1h0c0.4 0 0.9 0 1.3 0 1.3 0 2.6 0 3.9 0C82.6 65.5 79.8 66.3 77.1 67.1zM25 108.4c-0.5-0.5-1.1-2.1-1.7-4.1l0 0c-1-3.1-1.9-7.3-2.2-10.1 -0.4-3.6-0.1-4.4 0.3-4.7 0.4-0.4 2-1.3 3.4-2l1.9 15.3c0 0.3 0.2 0.6 0.4 0.7l3.9 2.7c0.1 0.2 0.1 0.4 0.2 0.7 0.1 0.3 0.2 0.6 0.3 0.9C29.8 108.2 26.5 108.6 25 108.4zM87.5 137.3c-0.8 0.1-1.6 0.2-2.4 0.3 -0.5 0-1 0.1-1.5 0.1h-0.2c0.6-1.4 1.1-2.4 1.4-3.2C85.6 135.3 86.5 136.3 87.5 137.3zM83.1 146.6c-4.1 0.3-8.2-0.2-12.3-1.3 0.3-0.1 0.6-0.1 0.9-0.1 0.3 0 7.6-1 10.9-5.9l0.3 0 0.8 0c0.5 0 1 0 1.6-0.1 1.2-0.1 2.5-0.3 3.6-0.5 0.1 0.1 0.3 0.3 0.4 0.4 2.5 2.4 5.5 3.8 8.9 4.1C92.5 145.5 87.2 146.4 83.1 146.6zM128.4 121.4c0.1 0 0.2-0.1 0.3-0.1 1-0.5 2.3-1.1 3.6-1.7 -0.1 0.1-0.1 0.3-0.2 0.4 -0.1 0.3-0.3 0.5-0.4 0.8 -0.9 1.7-1.9 3.6-2.8 5.4 -0.7 1.3-1.3 2.6-1.9 3.8 -2.1 4.3-6.2 5.2-9.1 5.9 -0.5 0.1-1 0.2-1.4 0.4 -0.3 0.1-0.6 0.2-0.9 0.3 -2.4 0.6-6.3 1.6-9.9 2.4 -1.1 0.3-2.2 0.5-3.2 0.8 -1.1 0.3-2.1 0.4-3.2 0.4 -3 0-5.6-1.1-7.7-3.2 -2.8-2.8-5.2-5.6-5.8-6.2 -0.1-0.1-0.1-0.1-0.1-0.2l-1.1-1.3c-0.4-0.3-0.7-0.5-0.7-0.5s-0.1 0.1-0.3 0.3l-0.1-0.1 0.2 0.2c0 0 0 0 0 0l0 0 0 0 -0.7 1.9c0 0-0.4 1.1-2.5 5.7 -0.8 1.8-2.5 3-4.2 3.9 -2.4 1.2-4.9 1.5-5 1.5 -0.1 0-0.2 0-0.3 0 -0.3 0-0.5 0.1-0.8 0.1 -1.2 0.2-3.3 0.6-11.3 1.5 -0.3 0-0.5 0.1-0.8 0.1 -1.2 0.1-2.3 0.2-3.4 0.2 0 0 0 0 0 0 0 0 0 0 0 0 -8.5 0-12.9-4.2-16.5-8.7 -0.4-0.5-0.9-1.1-1.3-1.7 -1-1.3-2-2.7-2.9-4.1 -0.7-0.9-1.3-1.9-1.9-2.7 0 0 0 0 0 0 0.2 0.1 0.5 0.2 0.7 0.3 3 1.4 6 2.8 6.1 2.8l0.5 0.3 0.6-0.2c8.8-2.5 17.1-5.2 17.2-5.2l0.6-0.2 0.3-0.5c4.8-7.6 8.6-9.4 9.3-9.5 0.5 0 1.1 0 1.6 0 6.7 0 12.3 2.1 12.4 2.1l0.5 0.2 0.5-0.2c8.5-2.6 12.4-3.9 13.8-3.9 0.3 0 0.3 0 0.7 0.4 0.1 0.1 0.3 0.2 0.5 0.4 4.2 3.3 9.4 7.4 9.4 7.5l0.4 0.3 0.5 0c0.1 0 6 0.7 9.5 1 1.7 0.2 3.3 0.3 4.9 0.3C124.7 122.6 126.8 122.2 128.4 121.4zM128.4 107c-0.3 0.9-0.6 1.8-0.9 2.7 -1.2 3.6-2.6 6.8-4.2 9.7 -0.4 0-0.9 0-1.3 0 -1.5 0-3-0.1-4.6-0.3 -2.9-0.3-7.5-0.8-8.9-1 -1.2-1-5.5-4.4-9.1-7.2 -0.1-0.1-0.3-0.2-0.4-0.3 -0.6-0.5-1.3-1.1-2.8-1.1 -1.3 0-3.2 0.5-7.8 1.9 2.4-1.8 2.4-4.1 2.4-4.1s-3.4 3.2-8.9 3.9c-5.5 0.7-9.8-2.7-9.8-2.7 0.2 0.6 0.4 1.9 1.7 3 -1.5-0.2-3.1-0.3-4.7-0.3 -0.6 0-1.2 0-1.8 0 -3.4 0.2-8.2 5.3-11.5 10.5 -1.6 0.5-6.8 2.2-12.7 3.9 -3.5-4.9-5.9-9.8-7.2-13 -0.8-1.8-1.2-3.1-1.3-3.4v0c-0.1-0.3-0.2-0.6-0.3-0.9l1.4 1v0l3.5 2.5 1.2 0.8c0.2 0.1 0.4 0.2 0.6 0.2 0.1 0 0.1 0 0.2 0l30.2-6.7 2.2-0.5c0.4-0.1 0.7-0.4 0.8-0.7l4.6-15.2c0.8-0.1 1.5-0.2 2.1-0.2 0.6 0 1.3 0.1 2.1 0.2l4.8 15.7c0.1 0.4 0.5 0.7 0.9 0.7l1.8 0.2 0.4 0.1 30.4 3.5c0.2 0 0.5 0 0.7-0.2l3.1-2.1 2.8-2 1-0.7C128.8 105.5 128.6 106.2 128.4 107zM121.2 107.7l-31.6-3.6 -4.8-15.6c-0.1-0.4-0.4-0.7-0.8-0.7 -1.2-0.2-2.2-0.3-3.1-0.3 -0.9 0-1.9 0.1-3.1 0.3 -0.4 0.1-0.7 0.3-0.8 0.7l-4.6 15.3 -31.4 7L28.6 102l-2.5-19.8c0.5-0.3 1.1-0.6 1.6-0.9 0.8-0.2 1.6-0.3 2.6-0.5l2.3 18.7c0 0.3 0.2 0.6 0.4 0.7l8.6 6c0.2 0.1 0.4 0.2 0.6 0.2 0.1 0 0.1 0 0.2 0l25.8-5.7c0.1 0 0.2 0 0.3-0.1 0.2-0.1 0.4-0.3 0.5-0.6l4.7-15.3c1.2-0.3 4.4-1.1 7.2-1.1 2.8 0 6 0.8 7.2 1.1l4.7 15.3c0.1 0.4 0.5 0.7 0.9 0.7l25.8 2.9c0.2 0 0.5 0 0.7-0.2l8.6-6c0.2-0.2 0.4-0.4 0.4-0.7l2.3-16c1.7 0.3 3.2 0.6 4.3 0.9l-2.5 17.7L121.2 107.7zM140.3 87.2c0.4 0.3 0.7 1.1 0.3 4.9 -0.4 4.6-2.4 12.7-3.6 14 -1.3 0.3-4.1 0-5.8-0.4 0.3-1.2 0.4-1.7 0.6-2.9l3-2.1c0.2-0.2 0.4-0.4 0.4-0.7l2.1-14.5C138.6 86.1 139.9 86.9 140.3 87.2zM136.8 78.9c-4.5-1-14.5-3-28.1-4.3 4.4-1.9 9-4.3 13.1-7.2 8.1 1.1 14 2.4 17.2 3.1L136.8 78.9zM146.3 62.4c-0.3 2-0.6 4-1.2 5.9 -0.3 1-0.6 1.9-0.9 2.8 -0.2 0.5-0.4 0.9-0.6 1.4 -0.1 0.2-0.2 0.4-0.3 0.6l-0.1 0.2c-0.2 0.1-0.3 0.2-0.5 0.2l-0.9 0.4c-0.3 0.1-0.6 0.3-1 0.4l1.6-6.1c-0.4-0.1-3.9-1-9.8-2.1 0.2 0 0.4-0.1 0.6-0.1 1.2-0.3 2.5-0.7 3.7-1.2 0.6-0.3 1.2-0.5 1.7-0.8 0.5-0.3 1.1-0.7 1.5-1.2 -6 2-18.4 1.1-29.4-0.1 -10.1-1-20.2-1.7-30.3-1.7 -10.2 0-20.3 0.7-30.3 1.7 -11 1.1-23.4 2-29.4 0.1 0.4 0.5 1 0.8 1.5 1.2 0.6 0.3 1.1 0.6 1.7 0.8 1.2 0.5 2.4 0.9 3.7 1.2 0.4 0.1 0.9 0.2 1.3 0.3 -5.5 1-8.6 1.9-9 2l1.7 6.4c0 0-0.1 0.1-0.1 0.1 -0.6-0.3-1.3-0.6-1.8-0.8l-0.9-0.4c-0.1-0.1-0.3-0.1-0.5-0.2l-0.1-0.2c-0.1-0.2-0.2-0.4-0.3-0.6 -0.2-0.4-0.4-0.9-0.6-1.4 -0.4-0.9-0.7-1.9-0.9-2.8 -0.5-1.9-0.9-3.9-1.2-5.9 -0.3-2-0.4-4-0.4-6.1 0-1 0-2 0.1-3 0-0.5 0.1-1 0.2-1.5 0-0.4 0.1-0.7 0.2-1.1 1.3-1.1 2.9-2.1 4.4-3 1.7-1 3.5-1.9 5.3-2.7 1.8-0.9 3.7-1.6 5.6-2.4 0.9-0.4 1.9-0.7 2.8-1.1 1-0.4 1.9-0.7 2.9-1.1 -2 0.3-4 0.8-6 1.3 -1.3 0.3-2.6 0.7-3.8 1.1 9-23.6 30.7-39 54.3-39 23.6 0 45.2 15.4 54.3 39 -1.3-0.4-2.6-0.8-3.8-1.1 -2-0.5-4-1-6-1.3 1 0.3 1.9 0.7 2.9 1.1 1 0.4 1.9 0.7 2.8 1.1 1.9 0.8 3.7 1.5 5.6 2.4 1.8 0.8 3.6 1.7 5.3 2.7 1.6 0.9 3.1 1.9 4.4 3 0.1 0.3 0.1 0.7 0.2 1.1 0.1 0.5 0.1 1 0.2 1.5 0.1 1 0.1 2 0.1 3C146.7 58.3 146.6 60.4 146.3 62.4z"/></svg>