<svg xmlns="http://www.w3.org/2000/svg" version="1.1" x="0" y="0" width="32" height="32" viewBox="0 0 32 32" enable-background="new 0 0 32 32" xml:space="preserve"><path fill="#333332" d="M24.8 11.4C24.6 11.2 24.3 11 24 11h-1c-0.6 0-1 0.4-1 1v6c0 0.6 0.4 1 1 1h4c0.6 0 1-0.4 1-1v-1.5c0-0.2-0.1-0.4-0.2-0.6L24.8 11.4zM27 18h-4v-6h1l3 4.5V18zM31.5 15.3l-4-6C26.9 8.5 26 8 25 8h-4V6c0-1.7-1.3-3-3-3H3C1.3 3 0 4.3 0 6v11c0 1.7 1.3 3 3 3h0v3c0 1.7 1.3 3 3 3h1.1c0.4 1.7 2 3 3.9 3 1.9 0 3.4-1.3 3.9-3h5.3c0.4 1.7 2 3 3.9 3 1.9 0 3.4-1.3 3.9-3H29c1.7 0 3-1.3 3-3v-6C32 16.4 31.8 15.8 31.5 15.3zM3 18c-0.6 0-1-0.4-1-1V6c0-0.6 0.4-1 1-1h15c0.6 0 1 0.4 1 1v2 2 7c0 0.6-0.4 1-1 1H3zM11 27c-1.1 0-2-0.9-2-2s0.9-2 2-2c1.1 0 2 0.9 2 2S12.1 27 11 27zM24 27c-1.1 0-2-0.9-2-2s0.9-2 2-2c1.1 0 2 0.9 2 2S25.1 27 24 27zM30 23c0 0.6-0.4 1-1 1h-1.1c-0.4-1.7-2-3-3.9-3 -1.9 0-3.4 1.3-3.9 3h-5.3c-0.4-1.7-2-3-3.9-3 -1.9 0-3.4 1.3-3.9 3H6c-0.6 0-1-0.4-1-1v-3h13c1.7 0 3-1.3 3-3v-7h4c0.3 0 0.6 0.2 0.8 0.4l4 6C29.9 16.6 30 16.8 30 17V23z"/></svg>